<svg width="44" height="40" viewBox="0 0 44 40" fill="none" xmlns="http://www.w3.org/2000/svg">
<path d="M42.1356 17.7692H38.4169C38.1054 17.7896 37.8135 17.9277 37.6001 18.1555C37.3868 18.3832 37.2681 18.6836 37.2681 18.9957C37.2681 19.3078 37.3868 19.6082 37.6001 19.8359C37.8135 20.0637 38.1054 20.2018 38.4169 20.2222H42.1356C42.3035 20.2331 42.4717 20.2096 42.6301 20.1529C42.7884 20.0963 42.9334 20.0077 43.0562 19.8927C43.1789 19.7778 43.2768 19.6388 43.3436 19.4845C43.4105 19.3302 43.445 19.1639 43.445 18.9957C43.445 18.8275 43.4105 18.6611 43.3436 18.5068C43.2768 18.3525 43.1789 18.2136 43.0562 18.0987C42.9334 17.9837 42.7884 17.8951 42.6301 17.8385C42.4717 17.7818 42.3035 17.7582 42.1356 17.7692Z" fill="#A3946E"/>
<path d="M36.4946 26.4991C36.2647 26.2693 35.953 26.1401 35.6279 26.1401C35.3029 26.1401 34.9911 26.2693 34.7612 26.4991C34.5314 26.729 34.4023 27.0407 34.4023 27.3658C34.4023 27.6909 34.5314 28.0026 34.7612 28.2325L36.6206 30.0919C36.8573 30.2766 37.1535 30.3683 37.4531 30.3497C37.7528 30.331 38.0353 30.2033 38.2473 29.9907C38.4593 29.7781 38.5861 29.4952 38.6038 29.1955C38.6215 28.8957 38.5289 28.5999 38.3435 28.3638L36.4946 26.4991Z" fill="#A3946E"/>
<path d="M36.6207 7.87884L34.7613 9.73823C34.5496 9.9718 34.4358 10.2777 34.4433 10.5928C34.4508 10.9079 34.5791 11.2081 34.8016 11.4313C35.0242 11.6545 35.324 11.7837 35.639 11.7922C35.9541 11.8007 36.2604 11.6878 36.4946 11.4768L38.3435 9.63844C38.5768 9.40998 38.7098 9.09818 38.7133 8.77164C38.7167 8.4451 38.5903 8.13056 38.3619 7.89722C38.1334 7.66388 37.8216 7.53086 37.4951 7.52741C37.1685 7.52396 36.854 7.65038 36.6207 7.87884Z" fill="#A3946E"/>
<path d="M4.139 23.9466V14.0508H1.22909C0.903117 14.0508 0.590493 14.1803 0.359993 14.4108C0.129493 14.6413 0 14.9539 0 15.2799L0 22.7175C0 23.0434 0.129493 23.3561 0.359993 23.5866C0.590493 23.8171 0.903117 23.9466 1.22909 23.9466H4.139Z" fill="#A3946E"/>
<path d="M8.42493 27.2131L6.5918 26.5513V29.0462L8.42493 27.2131Z" fill="#A3946E"/>
<path d="M7.50049 36.0692C7.60493 36.0981 7.71255 36.114 7.82089 36.1165H14.3288C14.6548 36.1165 14.9674 35.987 15.1979 35.7565C15.4284 35.526 15.5579 35.2134 15.5579 34.8874V29.7819L14.2552 29.3145L7.50049 36.0692Z" fill="#A3946E"/>
<path d="M29.6347 32.2401C29.8201 32.3066 30.0188 32.3276 30.2141 32.3013C30.4093 32.2749 30.5953 32.202 30.7565 32.0888C30.9176 31.9755 31.0492 31.8251 31.1401 31.6504C31.231 31.4756 31.2785 31.2816 31.2788 31.0846V12.291L16.1777 27.3921L29.6347 32.2401Z" fill="#A3946E"/>
<path d="M29.9393 5.68848C29.8335 5.69809 29.7294 5.72104 29.6294 5.75676L6.5918 14.0505V23.9463L10.3421 25.2962L29.9393 5.68848Z" fill="#A3946E"/>
<path d="M37.5292 0L31.1526 6.37658L11.734 25.7952L9.81682 27.7124L6.59177 30.9374L0.425293 37.1039L2.49479 39.1786L6.60752 35.0659L12.8633 28.8101L14.7805 26.893L31.2787 10.4L39.6039 2.07475L37.5292 0Z" fill="#A3946E"/>
</svg>
