<svg width="40" height="40" viewBox="0 0 40 40" fill="none" xmlns="http://www.w3.org/2000/svg">
<path d="M19.9 39.8C30.8905 39.8 39.8 30.8905 39.8 19.9C39.8 8.90953 30.8905 0 19.9 0C8.90953 0 0 8.90953 0 19.9C0 30.8905 8.90953 39.8 19.9 39.8Z" fill="#A3946E"/>
<path d="M6.28624 19.9002C6.28257 19.6011 6.29511 19.3021 6.32379 19.0044H2.76217C2.76217 19.2994 2.73535 19.5998 2.73535 19.9002C2.73535 20.2005 2.73535 20.5009 2.76217 20.7959H6.32379C6.29511 20.4982 6.28257 20.1992 6.28624 19.9002Z" fill="white"/>
<path d="M37.043 19.0044H33.4438V20.7959H37.043C37.043 20.5009 37.043 20.2005 37.043 19.9002C37.043 19.5998 37.0644 19.3101 37.043 19.0044Z" fill="white"/>
<path d="M12.5892 8.41587C12.9218 8.20668 13.2651 8.00285 13.6137 7.82584C13.662 7.82584 13.7049 7.77757 13.7532 7.76148L11.9777 4.67725C11.5316 4.90164 11.0983 5.15055 10.6797 5.42283L12.4551 8.50706L12.5892 8.41587Z" fill="white"/>
<path d="M4.67725 11.9777L7.76148 13.7532L8.50706 12.4551L5.42283 10.6797C5.15055 11.0983 4.90164 11.5316 4.67725 11.9777Z" fill="white"/>
<path d="M31.9795 26.1868C31.7918 26.5355 31.5987 26.8788 31.3788 27.2113L31.293 27.3401L34.3772 29.1155C34.6454 28.6971 34.9136 28.2734 35.1281 27.8282L32.0493 26.0474C32.0278 26.0956 32.001 26.1385 31.9795 26.1868Z" fill="white"/>
<path d="M7.82592 26.1815L7.75619 26.0474L4.67732 27.8228C4.8997 28.2683 5.14867 28.6999 5.4229 29.1155L8.50713 27.3561L8.41595 27.2274C8.20676 26.8788 8.00293 26.5355 7.82592 26.1815Z" fill="white"/>
<path d="M35.1281 11.9777C34.8999 11.5327 34.6492 11.0994 34.3772 10.6797L31.293 12.4551L32.0439 13.7532L35.1281 11.9777Z" fill="white"/>
<path d="M12.5892 31.3788L12.4551 31.2876L10.6797 34.3718C11.0981 34.6476 11.5315 34.9001 11.9777 35.1281L13.7532 32.0439L13.6137 31.9795C13.2622 31.7969 12.9203 31.5964 12.5892 31.3788Z" fill="white"/>
<path d="M26.0474 7.75611L27.3561 8.50706L29.1316 5.42283C28.7141 5.15172 28.2826 4.90284 27.8389 4.67725L26.0474 7.75611Z" fill="white"/>
<path d="M19.0044 33.4814V37.0377C19.2994 37.0377 19.5998 37.0698 19.9002 37.0698C20.2005 37.0698 20.5009 37.0698 20.7959 37.0377V33.4438H19.0044V33.4814Z" fill="white"/>
<path d="M20.7959 6.32428V2.76802C20.5009 2.76802 20.2005 2.73584 19.9002 2.73584C19.5998 2.73584 19.2994 2.73584 19.0044 2.76802V6.36182H20.7959V6.32428Z" fill="white"/>
<path d="M26.0474 32.0493L27.8282 35.1281C28.2734 34.8975 28.6971 34.6454 29.1209 34.3718L27.3561 31.2876L26.0474 32.0493Z" fill="white"/>
<path d="M19.9 22.6461C19.6257 22.646 19.3579 22.5618 19.133 22.4047L13.1737 18.237C12.8973 18.0272 12.7131 17.7185 12.6596 17.3757C12.6061 17.0329 12.6875 16.6827 12.8868 16.3986C13.0861 16.1146 13.3877 15.9189 13.7283 15.8526C14.0689 15.7863 14.4219 15.8546 14.7131 16.0432L18.559 18.7251V11.3605C18.559 11.0049 18.7003 10.6638 18.9518 10.4123C19.2033 10.1608 19.5444 10.0195 19.9 10.0195C20.2557 10.0195 20.5967 10.1608 20.8482 10.4123C21.0997 10.6638 21.241 11.0049 21.241 11.3605V21.3051C21.2417 21.4814 21.2075 21.6561 21.1403 21.8191C21.0732 21.9822 20.9745 22.1303 20.8498 22.2549C20.7251 22.3796 20.577 22.4783 20.414 22.5455C20.251 22.6126 20.0763 22.6468 19.9 22.6461Z" fill="white"/>
</svg>
