<svg width="65" height="35" viewBox="0 0 65 35" fill="none" xmlns="http://www.w3.org/2000/svg">
<path d="M31.3532 16.0788V15.963C31.3532 15.963 31.3532 15.9244 31.3532 15.9051L29.1472 10.5799V7.96875H2.21245V10.5863L0.0450627 15.9115C0.0450627 15.9115 0.0450627 15.9566 0.0450627 15.9759V16.0852C0.0138379 16.2787 -0.00122074 16.4744 4.28584e-05 16.6704C0.000648568 17.3377 0.179911 17.9926 0.519206 18.5671C0.858501 19.1417 1.34545 19.6149 1.92947 19.9376V34.7942H29.4366V19.9376C30.0235 19.6117 30.5122 19.1342 30.8516 18.555C31.191 17.9758 31.3687 17.3161 31.366 16.6447C31.3769 16.456 31.3726 16.2668 31.3532 16.0788ZM29.8739 15.8215H25.0504L24.4715 11.9305H28.2661L29.8739 15.8215ZM3.50516 9.27433H27.8095V10.5606H3.52445L3.50516 9.27433ZM23.9313 17.1399L24.0021 17.6159L23.6162 18.1304C23.389 18.4314 23.095 18.6756 22.7574 18.8437C22.4198 19.0119 22.0478 19.0994 21.6707 19.0994C21.2935 19.0994 20.9215 19.0119 20.5839 18.8437C20.2464 18.6756 19.9524 18.4314 19.7252 18.1304L19.3264 17.603V17.1399H23.9313ZM19.2428 15.8537L19.0499 11.9627H23.1595L23.7384 15.8537H19.2428ZM17.9951 17.1399V17.6094L17.6092 18.1304C17.382 18.4314 17.0881 18.6756 16.7505 18.8437C16.4129 19.0119 16.0409 19.0994 15.6637 19.0994C15.2866 19.0994 14.9146 19.0119 14.577 18.8437C14.2394 18.6756 13.9454 18.4314 13.7182 18.1304L13.3195 17.5966V17.1399H17.9951ZM13.4288 15.8537L13.6282 11.9627H17.7379L17.9308 15.8537H13.4288ZM7.64056 15.8537L8.21295 11.9627H12.3162L12.1168 15.8537H7.64056ZM12.0589 17.1399V17.6159L11.673 18.1304C11.4453 18.4254 11.153 18.6642 10.8185 18.8285C10.484 18.9929 10.1163 19.0783 9.74363 19.0783C9.37096 19.0783 9.00325 18.9929 8.66877 18.8285C8.33429 18.6642 8.04194 18.4254 7.8142 18.1304L7.43475 17.6223L7.5055 17.1399H12.0589ZM3.05496 11.9369H6.86236L6.28996 15.8279H1.49213L3.05496 11.9369ZM1.32491 17.1399H6.12274L6.01984 17.648L5.65325 18.1304C5.37103 18.5058 4.98612 18.7914 4.54503 18.9527C4.10395 19.114 3.62559 19.1441 3.16776 19.0394C2.70994 18.9346 2.29227 18.6995 1.96523 18.3624C1.63819 18.0253 1.41579 17.6007 1.32491 17.1399ZM25.507 33.5079H20.2654V28.9416H20.9086C21.0791 28.9416 21.2427 28.8738 21.3633 28.7532C21.4839 28.6326 21.5517 28.469 21.5517 28.2984C21.5517 28.1279 21.4839 27.9643 21.3633 27.8437C21.2427 27.723 21.0791 27.6553 20.9086 27.6553H20.2654V23.0311H25.507V33.5079ZM28.1246 33.5079H26.8383V21.7191H18.9598V33.5079H3.24147V20.3814C3.89663 20.4684 4.56314 20.3783 5.17167 20.1205C5.78019 19.8626 6.30848 19.4463 6.70157 18.915C7.05025 19.3796 7.50229 19.7567 8.02191 20.0165C8.54154 20.2762 9.11448 20.4114 9.69539 20.4114C10.2763 20.4114 10.8492 20.2762 11.3689 20.0165C11.8885 19.7567 12.3405 19.3796 12.6892 18.915C13.0379 19.3796 13.4899 19.7567 14.0096 20.0165C14.5292 20.2762 15.1021 20.4114 15.683 20.4114C16.2639 20.4114 16.8369 20.2762 17.3565 20.0165C17.8761 19.7567 18.3282 19.3796 18.6769 18.915C19.0255 19.3796 19.4776 19.7567 19.9972 20.0165C20.5168 20.2762 21.0898 20.4114 21.6707 20.4114C22.2516 20.4114 22.8245 20.2762 23.3441 20.0165C23.8638 19.7567 24.3158 19.3796 24.6645 18.915C25.0576 19.4463 25.5859 19.8626 26.1944 20.1205C26.8029 20.3783 27.4694 20.4684 28.1246 20.3814V33.5079ZM27.6551 19.1015C27.28 19.1013 26.9103 19.0133 26.5752 18.8447C26.2402 18.6761 25.9493 18.4315 25.7257 18.1304L25.3398 17.6223L25.269 17.1399H30.054C29.9448 17.6949 29.6455 18.1944 29.2076 18.5525C28.7697 18.9105 28.2207 19.1047 27.6551 19.1015Z" fill="#A3946E"/>
<path d="M4.55368 21.7188V30.8706H17.648V21.7188H4.55368ZM16.336 29.5844H5.85926V23.0308H16.336V29.5844Z" fill="#A3946E"/>
<path d="M15.0238 26.3047C14.9377 26.3042 14.8523 26.321 14.7727 26.3542C14.6932 26.3873 14.6211 26.4361 14.5608 26.4976L13.2745 27.7839C13.162 27.8672 13.0798 27.985 13.0403 28.1193C13.0008 28.2536 13.0062 28.3971 13.0556 28.528C13.1051 28.659 13.1959 28.7702 13.3144 28.8449C13.4328 28.9195 13.5724 28.9535 13.7118 28.9416C13.798 28.9421 13.8834 28.9253 13.963 28.8921C14.0425 28.859 14.1146 28.8102 14.1749 28.7486L15.4612 27.4624C15.5227 27.402 15.5715 27.33 15.6047 27.2504C15.6378 27.1709 15.6546 27.0855 15.6541 26.9993C15.6612 26.9117 15.6502 26.8236 15.6218 26.7404C15.5935 26.6572 15.5484 26.5807 15.4893 26.5156C15.4303 26.4505 15.3585 26.3982 15.2784 26.3619C15.1984 26.3256 15.1117 26.3062 15.0238 26.3047Z" fill="#A3946E"/>
<path d="M15.024 23.687C14.9379 23.6865 14.8525 23.7033 14.7729 23.7365C14.6934 23.7696 14.6213 23.8184 14.561 23.88L10.6314 27.8031C10.5085 27.9286 10.4393 28.097 10.4384 28.2726C10.4384 28.4432 10.5062 28.6068 10.6268 28.7274C10.7474 28.848 10.911 28.9158 11.0816 28.9158C11.1678 28.9163 11.2532 28.8994 11.3327 28.8663C11.4123 28.8332 11.4843 28.7844 11.5446 28.7228L15.4742 24.7997C15.5358 24.7393 15.5846 24.6673 15.6177 24.5877C15.6509 24.5082 15.6677 24.4228 15.6672 24.3366C15.668 24.2516 15.652 24.1673 15.6201 24.0885C15.5881 24.0097 15.5409 23.9381 15.4811 23.8777C15.4213 23.8173 15.3501 23.7693 15.2717 23.7366C15.1932 23.7039 15.109 23.687 15.024 23.687Z" fill="#A3946E"/>
<path d="M43.0132 0V34.8196H50.0877V23.0309H57.8054V34.8196H64.8799V0H43.0132ZM51.7856 17.8021H46.7627V12.7792H51.7856V17.8021ZM51.7856 9.2355H46.7627V4.21257H51.7856V9.2355ZM61.2398 17.8021H56.2168V12.7792H61.2398V17.8021ZM61.2398 9.2355H56.2168V4.21257H61.2398V9.2355Z" fill="#A3946E"/>
<path d="M34.2667 25.0248L33.1669 24.356L35.5915 20.3749L33.1669 16.4003L34.2667 15.7314L37.0965 20.3749L34.2667 25.0248Z" fill="#A3946E"/>
<path d="M37.4498 25.0248L36.3501 24.356L38.7747 20.3749L36.3501 16.4003L37.4498 15.7314L40.2797 20.3749L37.4498 25.0248Z" fill="#A3946E"/>
</svg>
