<svg width="41" height="47" viewBox="0 0 41 47" fill="none" xmlns="http://www.w3.org/2000/svg">
<path d="M19.9306 36.9824H7.99713V44.9351H19.9306V36.9824Z" fill="#A3946E" stroke="white" stroke-width="1.34" stroke-miterlimit="10"/>
<path d="M21.9552 36.9823H5.96331C4.51195 25.1894 3.08149 13.3935 1.67194 1.59473H26.3451C24.8818 13.3935 23.4185 25.1894 21.9552 36.9823Z" fill="#A3946E" stroke="white" stroke-width="1.34" stroke-miterlimit="10"/>
<path d="M1.67194 6.80469H25.8882" stroke="white" stroke-width="1.34" stroke-miterlimit="10"/>
<path d="M13.9638 30.6715C17.2592 30.6715 19.9306 26.495 19.9306 21.3431C19.9306 16.1911 17.2592 12.0146 13.9638 12.0146C10.6685 12.0146 7.99713 16.1911 7.99713 21.3431C7.99713 26.495 10.6685 30.6715 13.9638 30.6715Z" fill="white"/>
<path d="M7.77304 42.4141H20.253" stroke="white" stroke-width="1.34" stroke-miterlimit="10"/>
<path d="M15.693 40.9585H12.3423V42.3964H15.693V40.9585Z" fill="white"/>
<path d="M30.9232 29.1714H24.5443C20.017 29.1714 16.3468 32.8054 16.3468 37.2883C16.3468 41.7711 20.017 45.4051 24.5443 45.4051H30.9232C35.4505 45.4051 39.1207 41.7711 39.1207 37.2883C39.1207 32.8054 35.4505 29.1714 30.9232 29.1714Z" fill="#A3946E" stroke="white" stroke-width="1.34" stroke-miterlimit="10"/>
<path d="M33.5392 21.8135H21.9283C19.8799 21.8135 18.2193 23.4586 18.2193 25.488V25.4969C18.2193 27.5263 19.8799 29.1715 21.9283 29.1715H33.5392C35.5877 29.1715 37.2483 27.5263 37.2483 25.4969V25.488C37.2483 23.4586 35.5877 21.8135 33.5392 21.8135Z" fill="#A3946E" stroke="white" stroke-width="1.34" stroke-miterlimit="10"/>
<path d="M27.7337 41.5357C31.6624 41.5357 34.8472 39.6322 34.8472 37.2842C34.8472 34.9362 31.6624 33.0327 27.7337 33.0327C23.8051 33.0327 20.6203 34.9362 20.6203 37.2842C20.6203 39.6322 23.8051 41.5357 27.7337 41.5357Z" fill="white"/>
<path d="M39.6763 6.36268L40.0204 6.01233L39.6763 5.66199L37.7 3.64966L37.3433 3.28642L36.9865 3.64965L20.6808 20.2527L16.9283 24.0736L16.928 24.0739L13.9867 27.0739L13.9861 27.0745L11.415 29.6874L11.4143 29.6882L9.4484 31.695L9.44796 31.6954L8.57295 32.5864L8.57283 32.5865L1.64339 39.6372L1.29907 39.9875L1.64327 40.338L3.61957 42.3503L3.9763 42.7136L4.33303 42.3503L10.4871 36.0841L12.6485 33.8833L15.2252 31.2596L18.0721 28.3608L20.2035 26.1905L26.2725 20.0109L39.6763 6.36268Z" fill="#A3946E" stroke="white"/>
</svg>
