<svg width="33" height="40" viewBox="0 0 33 40" fill="none" xmlns="http://www.w3.org/2000/svg">
<path d="M28.5731 40H33L25.5704 31.0726C26.9897 30.7953 28.2691 30.0296 29.1893 28.9067C30.1096 27.7839 30.6134 26.3737 30.6145 24.9178V6.27428C30.6145 2.22886 26.7038 0 16.4555 0C6.20716 0 2.30246 2.22886 2.30246 6.27428V24.9298C2.30854 26.395 2.82414 27.8117 3.7597 28.9339C4.69526 30.0561 5.99165 30.8128 7.42366 31.0726L0 40H4.4269L9.41755 34.0245H23.5824L28.5731 40ZM24.3776 26.3938C23.9516 26.3938 23.5351 26.2666 23.1809 26.0282C22.8266 25.7899 22.5505 25.4511 22.3875 25.0548C22.2245 24.6584 22.1818 24.2223 22.2649 23.8015C22.348 23.3807 22.5532 22.9942 22.8544 22.6909C23.1557 22.3875 23.5395 22.1809 23.9574 22.0972C24.3752 22.0136 24.8084 22.0565 25.202 22.2207C25.5956 22.3849 25.932 22.6629 26.1687 23.0196C26.4054 23.3763 26.5317 23.7957 26.5317 24.2247C26.5302 24.7995 26.3027 25.3503 25.8991 25.7567C25.4954 26.1632 24.9485 26.3922 24.3776 26.3938ZM10.8061 2.76068C10.8077 2.68192 10.8394 2.60681 10.8947 2.55111C10.9501 2.49541 11.0246 2.46344 11.1029 2.46191H21.7844C21.8631 2.46191 21.9386 2.49338 21.9942 2.54942C22.0498 2.60545 22.0811 2.68144 22.0811 2.76068V4.62504C22.0811 4.70428 22.0498 4.78027 21.9942 4.8363C21.9386 4.89233 21.8631 4.92381 21.7844 4.92381H11.1029C11.0242 4.92381 10.9487 4.89233 10.8931 4.8363C10.8374 4.78027 10.8061 4.70428 10.8061 4.62504V2.76068ZM5.38824 16.1996V8.3179C5.38824 7.94705 5.53454 7.5914 5.79495 7.32917C6.05536 7.06695 6.40856 6.91963 6.77684 6.91963H26.1401C26.3222 6.91963 26.5024 6.95584 26.6706 7.02618C26.8387 7.09652 26.9914 7.19961 27.1199 7.32953C27.2483 7.45945 27.3501 7.61364 27.4192 7.78325C27.4883 7.95287 27.5235 8.13456 27.5227 8.3179V16.1996C27.5235 16.3829 27.4883 16.5646 27.4192 16.7342C27.3501 16.9038 27.2483 17.058 27.1199 17.1879C26.9914 17.3179 26.8387 17.421 26.6706 17.4913C26.5024 17.5616 26.3222 17.5979 26.1401 17.5978H6.77684C6.40856 17.5978 6.05536 17.4505 5.79495 17.1883C5.53454 16.9261 5.38824 16.5704 5.38824 16.1996ZM6.37925 24.2247C6.37925 23.7957 6.50558 23.3763 6.74228 23.0196C6.97898 22.6629 7.3154 22.3849 7.70901 22.2207C8.10263 22.0565 8.53575 22.0136 8.9536 22.0972C9.37146 22.1809 9.75528 22.3875 10.0565 22.6909C10.3578 22.9942 10.563 23.3807 10.6461 23.8015C10.7292 24.2223 10.6865 24.6584 10.5235 25.0548C10.3605 25.4511 10.0844 25.7899 9.73012 26.0282C9.37587 26.2666 8.9594 26.3938 8.53336 26.3938C7.96205 26.3938 7.41415 26.1653 7.01017 25.7585C6.6062 25.3517 6.37925 24.8 6.37925 24.2247Z" fill="#A3946E"/>
</svg>
