<svg width="38" height="38" viewBox="0 0 38 38" fill="none" xmlns="http://www.w3.org/2000/svg">
<path d="M15.3702 13.6634C17.4146 13.7048 19.4432 13.291 21.3142 12.4509L23.7508 9.9699C23.7935 9.80356 23.8153 9.63238 23.8158 9.46045V7.23924C23.8158 4.92633 20.0133 3.05664 15.3702 3.05664C10.7272 3.05664 6.92969 4.92633 6.92969 7.23924V9.47573C6.92969 11.7886 10.7072 13.6634 15.3702 13.6634ZM15.3702 4.79387C19.4829 4.79387 22.1047 6.39864 22.1047 7.23924C22.1047 8.07983 19.4829 9.67951 15.3702 9.67951C11.2575 9.67951 8.63581 8.06965 8.63581 7.22905C8.63581 6.38845 11.2625 4.79387 15.3702 4.79387Z" fill="#A3946E"/>
<path d="M13.5741 20.3323L16.8962 16.9496C16.3959 16.9954 15.8956 17.0311 15.3702 17.0311C11.3176 17.0311 7.93535 15.6148 7.11481 13.7247C7.05977 13.5821 7.04977 13.5515 7.05977 13.5515C7.05404 13.5423 7.04578 13.5349 7.036 13.5304C7.02622 13.5259 7.01535 13.5244 7.00474 13.5261C6.98438 13.5274 6.96529 13.5365 6.95134 13.5517C6.93739 13.5668 6.92965 13.5868 6.92969 13.6076V16.2363C6.92969 18.2436 9.77656 19.9197 13.5741 20.3323Z" fill="#A3946E"/>
<path d="M15.3703 27.0979H15.7056C15.6553 26.7178 15.6252 26.3351 15.6155 25.9517L14.5098 27.0775C14.7899 27.0877 15.0801 27.0979 15.3703 27.0979Z" fill="#A3946E"/>
<path d="M8.59578 25.401L10.8923 23.0627C8.99605 22.4717 7.60013 21.5343 7.11481 20.4033C7.03476 20.1995 7.05477 20.2148 7.07478 20.2403C7.06866 20.227 7.05864 20.2159 7.0461 20.2086C7.03356 20.2013 7.01911 20.1981 7.00474 20.1995C6.98522 20.2007 6.96681 20.2092 6.95299 20.2233C6.93916 20.2373 6.93087 20.2561 6.92969 20.276V22.9251C6.92969 23.8472 7.5551 24.7082 8.59578 25.401Z" fill="#A3946E"/>
<path d="M15.3701 30.3784C14.1274 30.3833 12.8883 30.2414 11.6777 29.9556L9.22607 32.4519C11.147 33.3675 13.2496 33.8191 15.3701 33.7714C16.4109 33.7775 17.4499 33.6802 18.4722 33.481C17.6788 32.5395 17.0325 31.4793 16.5559 30.3377C16.1706 30.3631 15.7704 30.3784 15.3701 30.3784Z" fill="#A3946E"/>
<path d="M30.6149 21.6978H29.3041L27.5829 24.4233L25.8618 21.6978H24.556L25.8668 23.7814H24.3208V24.892H26.5673L26.8124 25.2741V26.186H24.3208V26.1911V27.3017V27.4851H26.8124V29.4516H28.3585V27.4851H30.8451V27.3017V26.1911V26.186H28.3585V25.269L28.5986 24.892H30.8451V23.7814H29.2991L30.6149 21.6978Z" fill="#A3946E"/>
<path d="M27.5832 14.9727C27.1582 14.9731 26.7337 15.002 26.3124 15.0593L17.2564 24.2803C17.2027 24.7096 17.1743 25.1417 17.1714 25.5743C17.1704 27.6726 17.7806 29.724 18.9249 31.4691C20.0691 33.2141 21.6959 34.5744 23.5996 35.3779C25.5032 36.1813 27.5981 36.3918 29.6192 35.9827C31.6404 35.5736 33.4969 34.5633 34.9541 33.0796C36.4112 31.5959 37.4034 29.7055 37.8052 27.6475C38.207 25.5895 38.0002 23.4564 37.2112 21.518C36.4222 19.5797 35.0862 17.9232 33.3724 16.7581C31.6586 15.593 29.6439 14.9716 27.5832 14.9727ZM27.5832 33.5269C26.0385 33.5269 24.5285 33.0605 23.2442 32.1866C21.9598 31.3128 20.9587 30.0708 20.3676 28.6177C19.7765 27.1645 19.6218 25.5655 19.9232 24.0229C20.2245 22.4802 20.9684 21.0632 22.0606 19.9511C23.1529 18.8389 24.5445 18.0815 26.0596 17.7746C27.5746 17.4678 29.1449 17.6252 30.5721 18.2272C31.9992 18.8291 33.2189 19.8484 34.0771 21.1562C34.9353 22.4639 35.3934 24.0015 35.3934 25.5743C35.3921 27.6831 34.5688 29.7051 33.1044 31.1961C31.64 32.6872 29.6542 33.5255 27.5832 33.5269Z" fill="#A3946E"/>
<path d="M12.8685 26.9092L15.7153 24.0105L17.8467 21.8402L23.9157 15.6605L37.3195 2.01233L35.3433 0L19.0375 16.603L15.2851 20.4239L12.3431 23.4246L9.77143 26.0381L7.80513 28.0453L6.92956 28.9369L0 35.9877L1.9763 38L8.13035 31.7337L10.2918 29.5329L12.8685 26.9092Z" fill="#A3946E"/>
</svg>
