<svg xmlns="http://www.w3.org/2000/svg" xmlns:xlink="http://www.w3.org/1999/xlink" width="270.541" height="283.708" viewBox="0 0 270.541 283.708">
  <defs>
    <linearGradient id="linear-gradient" x1="0.5" y1="1" x2="0.5" gradientUnits="objectBoundingBox">
      <stop offset="0" stop-color="#604c3f" stop-opacity="0.102"/>
      <stop offset="0.063" stop-color="#604c3f" stop-opacity="0.259"/>
      <stop offset="0.211" stop-color="#604c3f" stop-opacity="0.58"/>
      <stop offset="0.356" stop-color="#604c3f" stop-opacity="0.812"/>
      <stop offset="0.494" stop-color="#604c3f" stop-opacity="0.953"/>
      <stop offset="0.618" stop-color="#604c3f"/>
    </linearGradient>
  </defs>
  <g id="_light_course_range_illust" data-name=" light_course_range_illust" transform="translate(-66.459 -1209.21)">
    <g id="グループ_3036" data-name="グループ 3036" transform="translate(11811.459 1797.115)">
      <g id="グループ_3021" data-name="グループ 3021" transform="translate(-11745 -587.522)">
        <path id="パス_3375" data-name="パス 3375" d="M144.316,220.156a58.589,58.589,0,0,0-1.239-6c-.53-1.647-.648-3.33-1.116-4.98-.317-1.12-.859-2.2-1.115-3.322-1.769-7.746-3-15.643-4.557-23.435-.4-1.974-.485-4.061-1.252-5.93a12.073,12.073,0,0,0-1.285-3.179,36.8,36.8,0,0,1-2.45-4.79,32.659,32.659,0,0,1-1.688-5.236c-1.219-8.378-2.187-16.756-2.714-25.214-.321-5.147-2.111-9.826-6.9-12.518a14.025,14.025,0,0,0-4.711-2.075c-5.407-1.356-11.012-2.288-15.558-5.768a2.947,2.947,0,0,1-.725-.89,8.515,8.515,0,0,1-.679-1.593,6.784,6.784,0,0,1-.306-1.1,6.553,6.553,0,0,1-.052-.836c0-.091,0-.184-.006-.273-.011-.412-.033-.825-.033-1.237,0-.167-.016-.9-.025-1.407a8.729,8.729,0,0,1-1.261,1.733,20.038,20.038,0,0,1-4.7,3.305c-.963.511-1.972.034-3.021.271-1.049-.236-2.058.24-3.021-.271a20.038,20.038,0,0,1-4.7-3.305,8.73,8.73,0,0,1-1.261-1.733c-.008.51-.02,1.24-.024,1.407,0,.412-.022.825-.033,1.237,0,.09,0,.182-.006.273a6.556,6.556,0,0,1-.052.836,6.784,6.784,0,0,1-.306,1.1,8.515,8.515,0,0,1-.679,1.593,2.947,2.947,0,0,1-.725.89c-4.547,3.48-10.151,4.412-15.559,5.768a14.022,14.022,0,0,0-4.71,2.075c-4.786,2.692-6.576,7.371-6.9,12.518-.527,8.459-1.495,16.837-2.714,25.214a32.658,32.658,0,0,1-1.688,5.236,36.87,36.87,0,0,1-2.45,4.79,12.055,12.055,0,0,0-1.285,3.179c-.767,1.869-.857,3.956-1.252,5.93C40,190.207,38.778,198.1,37.008,205.851c-.257,1.124-.8,2.2-1.116,3.322-.468,1.65-.585,3.333-1.116,4.98a58.589,58.589,0,0,0-1.239,6,11.668,11.668,0,0,0-.4,2.8,5.688,5.688,0,0,0,.8,2.533c1.6,2.873,3.862,6.409,7.544,6.5a.718.718,0,0,0,.074-.006.8.8,0,0,0,.477.251,6.478,6.478,0,0,0,.82.026,21.7,21.7,0,0,0,3.339-.223.763.763,0,0,0,.444-1.229,2.193,2.193,0,0,0-2.463-.675l-.813-.285c-.037-.062-.074-.126-.106-.189-.057-.113-.108-.229-.163-.344a.74.74,0,0,0-.06-.439,17.287,17.287,0,0,1-1.486-4.87l.771-.849.7-.767a9.8,9.8,0,0,1,1.108,3.217,14.445,14.445,0,0,1,.115,1.785,1.532,1.532,0,0,0,.734,1.428,1.256,1.256,0,0,0,1.659-.651,7.655,7.655,0,0,0,.391-2.222,14.028,14.028,0,0,0,.177-4.323,5.037,5.037,0,0,0-1.084-2.351,17.243,17.243,0,0,0-1.537-3.71c-.294-.564-.629-1.146-.88-1.741l-.094-.851a8.008,8.008,0,0,1,1.047-4.181c.617-1.4,1.2-2.816,1.8-4.225a67.85,67.85,0,0,1,3.964-8.183c4.325-7.288,7.753-14.955,8.54-23.648a17.318,17.318,0,0,1,1.107-4.6c.45-1.177,1.134-2.243,1.648-3.391.247-.552.465-1.071.761-1.6.192-.342.941-1.317.89-1.7a36.416,36.416,0,0,0,1.628,6.967c2.251,10.212,1.341,20.368-.971,30.667-2.506,11.168-5.259,22.333-6.284,33.785-.782,8.748.706,17.409,1.28,26.1.137,2.079.227,4.176.214,6.262a36.785,36.785,0,0,1-2.051,12.844c-3.887,10.3-3.266,20.668-2.332,31.129a79.256,79.256,0,0,1-1.674,25.583,17.364,17.364,0,0,1-.616,2.021,36.215,36.215,0,0,1-2.788,5.343,16.45,16.45,0,0,1-1.182,1.6,18.971,18.971,0,0,0-1.247,1.936,15.076,15.076,0,0,0-1.355,1.625c-1.335,1.922-1.6,3.239-.606,4.37a2.746,2.746,0,0,0,.462.446,7.681,7.681,0,0,0,1.332.842c.946.487,1.979.8,2.972,1.2.029-.056.057-.1.086-.154-.029.053-.057.1-.086.154l3.029.4c-.017-.047-.035-.091-.053-.137.018.046.036.089.053.137l1.824-.016c3.6-1.246,4.734-4.328,5.572-7.576.361-1.4.8-2.7,1.251-3.921a7.934,7.934,0,0,0,2.227-7.187c.65-9.8,1.356-19.629,5.122-28.868a41.231,41.231,0,0,0,3.328-18.177q-.034-1.2-.141-2.415a15.73,15.73,0,0,1,2.411-8.57,21.09,21.09,0,0,0,2.68-8.477c1.148-8.71,4.635-16.792,6.91-25.2a81.032,81.032,0,0,0,2.5-14.1,12.559,12.559,0,0,0,.07-2.864,4.014,4.014,0,0,1,.389-1.137,4.825,4.825,0,0,0,.62.094,3.953,3.953,0,0,0,1-.055,3.958,3.958,0,0,0,1,.055,4.825,4.825,0,0,0,.62-.094,4.014,4.014,0,0,1,.389,1.137,12.559,12.559,0,0,0,.07,2.864,81.032,81.032,0,0,0,2.5,14.1c2.275,8.409,5.761,16.491,6.91,25.2a21.09,21.09,0,0,0,2.68,8.477,15.73,15.73,0,0,1,2.411,8.57q-.107,1.213-.142,2.415a41.231,41.231,0,0,0,3.328,18.177c3.767,9.239,4.472,19.066,5.122,28.868a7.934,7.934,0,0,0,2.227,7.187c.447,1.216.889,2.522,1.251,3.921.838,3.249,1.975,6.33,5.572,7.576l1.824.016c.017-.047.035-.091.053-.137-.018.046-.036.089-.053.137l3.029-.4c-.029-.056-.057-.1-.086-.154.029.053.057.1.086.154.993-.394,2.027-.71,2.972-1.2a7.7,7.7,0,0,0,1.332-.842,2.746,2.746,0,0,0,.462-.446c.994-1.131.729-2.448-.606-4.37a15.077,15.077,0,0,0-1.355-1.625,18.975,18.975,0,0,0-1.247-1.936,16.448,16.448,0,0,1-1.182-1.6,36.216,36.216,0,0,1-2.788-5.343,17.367,17.367,0,0,1-.616-2.021,79.256,79.256,0,0,1-1.674-25.583c.933-10.461,1.554-20.827-2.332-31.129a36.785,36.785,0,0,1-2.051-12.844c-.014-2.086.076-4.183.214-6.262.574-8.692,2.063-17.353,1.28-26.1-1.025-11.453-3.777-22.618-6.284-33.785-2.312-10.3-3.222-20.455-.971-30.667a36.417,36.417,0,0,0,1.628-6.967c-.051.382.7,1.357.89,1.7.3.529.514,1.048.761,1.6.514,1.148,1.2,2.213,1.648,3.391a17.32,17.32,0,0,1,1.107,4.6c.787,8.693,4.215,16.36,8.54,23.648a67.846,67.846,0,0,1,3.964,8.183c.6,1.41,1.186,2.824,1.8,4.225a8.007,8.007,0,0,1,1.047,4.181l-.094.851c-.251.6-.585,1.177-.88,1.741a17.244,17.244,0,0,0-1.537,3.71,5.037,5.037,0,0,0-1.084,2.351,14.028,14.028,0,0,0,.177,4.323,7.654,7.654,0,0,0,.391,2.222,1.256,1.256,0,0,0,1.659.651,1.532,1.532,0,0,0,.734-1.428,14.444,14.444,0,0,1,.115-1.785,9.8,9.8,0,0,1,1.108-3.217l.7.767.771.849a17.272,17.272,0,0,1-1.486,4.87.743.743,0,0,0-.059.439c-.055.114-.106.23-.163.344-.032.063-.069.127-.106.189l-.813.285a2.193,2.193,0,0,0-2.463.675.763.763,0,0,0,.444,1.229,21.7,21.7,0,0,0,3.339.223,6.478,6.478,0,0,0,.82-.026.8.8,0,0,0,.477-.251.719.719,0,0,0,.074.006c3.681-.089,5.948-3.626,7.544-6.5a5.681,5.681,0,0,0,.8-2.533A11.645,11.645,0,0,0,144.316,220.156Z" transform="translate(-33.136 -71.237)" fill="#e6bc9b"/>
        <path id="パス_3376" data-name="パス 3376" d="M146.947,108.812c0-.194.009-.908,0-1.5a10.25,10.25,0,0,1-1.267,2.024,20.422,20.422,0,0,1-4.721,3.859,11.314,11.314,0,0,1-3.036,1.362,11.311,11.311,0,0,1-3.036-1.362,20.422,20.422,0,0,1-4.721-3.859,10.251,10.251,0,0,1-1.267-2.024c-.008.595,0,1.309,0,1.5,0,.481-.015,1.122-.026,1.6,0,.105,6.7,7.733,9.05,7.733s9.053-7.628,9.051-7.733C146.962,109.934,146.947,109.293,146.947,108.812Z" transform="translate(-82.132 -69.679)" fill="#aa9082" opacity="0.5"/>
        <path id="パス_3377" data-name="パス 3377" d="M146.04,58.647a1.9,1.9,0,0,0-2.261-.13,2.027,2.027,0,0,0-.2.143c.064-.052.028-.53.033-.624.078-1.459.35-2.9.426-4.359a12.809,12.809,0,0,0-.344-2.917,16.2,16.2,0,0,0-1.128-3.876,9.036,9.036,0,0,0-1-1.688,13.872,13.872,0,0,0-1.384-1.418,12.56,12.56,0,0,0-8.98-3.5h-.149a12.562,12.562,0,0,0-8.98,3.5,13.921,13.921,0,0,0-1.383,1.418,9.035,9.035,0,0,0-1,1.688,16.226,16.226,0,0,0-1.129,3.876,12.837,12.837,0,0,0-.344,2.917c.076,1.46.349,2.9.426,4.359,0,.094-.031.572.033.624a2.027,2.027,0,0,0-.2-.143,1.9,1.9,0,0,0-2.261.13c-1.088.921-.652,2.494-.333,3.675a16.159,16.159,0,0,0,1.292,3.275c.521.993,1.249,2.169,2.478,2.35.082.012.173.246.27.606.155.574.716,2.784.92,3.342a24.9,24.9,0,0,0,1.256,2.8,8.779,8.779,0,0,0,1.267,1.743,20.516,20.516,0,0,0,3.755,2.8c.446.272.9.527,1.363.773a3.236,3.236,0,0,0,1.355.578h2.568a3.236,3.236,0,0,0,1.355-.578c.461-.247.916-.5,1.363-.773a20.516,20.516,0,0,0,3.755-2.8,8.778,8.778,0,0,0,1.267-1.743,24.793,24.793,0,0,0,1.257-2.8c.2-.558.766-2.768.92-3.342.1-.36.188-.594.27-.606,1.23-.181,1.957-1.357,2.478-2.35a16.159,16.159,0,0,0,1.292-3.275C146.692,61.141,147.128,59.568,146.04,58.647Z" transform="translate(-75.341 -35.565)" fill="#e6bc9b"/>
        <path id="パス_3378" data-name="パス 3378" d="M202.417,179.733s.274,5.225.357,7.933c.085,2.759-.078,6.492.142,9.293a17.84,17.84,0,0,1-.728,5.027c-.308-.592-.627-1.178-.9-1.787-.248-.555-.467-1.077-.765-1.609-.188-.336-.906-1.276-.891-1.677.125-1.256,1.92-15.762,2.31-17.311A.246.246,0,0,1,202.417,179.733Z" transform="translate(-118.282 -106.767)" fill="#aa9082" opacity="0.5"/>
        <path id="口" d="M149.016,109.354l.863-.022a1.37,1.37,0,0,0,.767-.114.106.106,0,0,1,.134.162.851.851,0,0,1-.439.22c-.158.032-.3.043-.44.064l-.86.091c-.574.058-1.153.1-1.738.1V109.4C147.87,109.4,148.44,109.367,149.016,109.354Z" transform="translate(-91.521 -70.641)" fill="#ac6e68"/>
        <g id="目" transform="translate(59.226 25.262)">
          <path id="パス_3379" data-name="パス 3379" d="M158.967,82.837a4.139,4.139,0,0,0-2.636-.494,2.737,2.737,0,0,0-1.035.343,1.575,1.575,0,0,0-.588,1.21c.042.231.375.23.615.231.628,0,1.373.036,2-.011a1.775,1.775,0,0,0,1.121-.247C158.668,83.671,159.365,83.1,158.967,82.837Z" transform="translate(-154.534 -82.212)" fill="#fff"/>
          <path id="パス_3380" data-name="パス 3380" d="M160.036,82.145a9.362,9.362,0,0,1,2.006.224c.221.05.106.239-.114.19a8.528,8.528,0,0,0-1.818-.2c-.1,0-.19-.034-.211-.095S159.939,82.145,160.036,82.145Z" transform="translate(-157.178 -82.133)" fill="#aa9082"/>
          <path id="パス_3381" data-name="パス 3381" d="M156.847,82.5a1.065,1.065,0,1,0,1.687-.07,3.546,3.546,0,0,0-1.687.07Z" transform="translate(-155.528 -82.241)" fill="#37230e"/>
          <path id="パス_3382" data-name="パス 3382" d="M159.239,82.836a2.32,2.32,0,0,0-.968-.518,4.456,4.456,0,0,0-1.21-.194c-.226,0-.452,0-.678.008a2.971,2.971,0,0,0-1.344.349,1.383,1.383,0,0,0-.593.776,1.5,1.5,0,0,0-.071.714.118.118,0,0,0,.034.082c.016.012.556-.019.557-.02a.691.691,0,0,1-.152-.086.341.341,0,0,1-.083-.134.432.432,0,0,1-.028-.113,1.266,1.266,0,0,1,.037-.562,1.426,1.426,0,0,1,1.112-.758,3.907,3.907,0,0,1,2.292.194,2.112,2.112,0,0,1,.767.41,1.385,1.385,0,0,1-.339.5c-.025.023,0,.059.033.052a4.709,4.709,0,0,0,.872-.353C159.488,83.065,159.318,82.914,159.239,82.836Z" transform="translate(-154.362 -82.122)" fill="#2a2827"/>
          <ellipse id="楕円形_73" data-name="楕円形 73" cx="0.457" cy="0.457" rx="0.457" ry="0.457" transform="translate(1.735 0.47)" fill="#2a2827" opacity="0.52" style="mix-blend-mode: multiply;isolation: isolate"/>
        </g>
        <path id="眉毛" d="M160.107,77.262c.019-.025.006-.052-.063-.077a13.561,13.561,0,0,0-6.561-.235c-.549.084-1.123.386-.821.944a.479.479,0,0,0,.176.192.557.557,0,0,0,.357.051c1.6-.248,3.175-.6,4.787-.768.22-.023.44-.039.66-.045C159.13,77.315,159.619,77.286,160.107,77.262Z" transform="translate(-94.23 -54.083)" fill="#7a6a56"/>
        <path id="パス_3383" data-name="パス 3383" d="M88.773,179.733s-.274,5.225-.357,7.933c-.085,2.759.078,6.492-.142,9.293A17.84,17.84,0,0,0,89,201.987c.308-.592.627-1.178.9-1.787.248-.555.467-1.077.765-1.609.188-.336.906-1.276.891-1.677-.125-1.256-1.921-15.762-2.31-17.311A.246.246,0,0,0,88.773,179.733Z" transform="translate(-61.326 -106.767)" fill="#aa9082" opacity="0.5"/>
        <path id="パス_3384" data-name="パス 3384" d="M146.65,112.086c-.126,0-.252.016-.377.025l-.662.043-.662-.043c-.125-.008-.251-.021-.377-.025a.56.56,0,0,0-.594.539c0,.374.377.588.673.733a3.064,3.064,0,0,0,.724.257h.009a1.75,1.75,0,0,0,.453,0h.009a3.064,3.064,0,0,0,.724-.257c.3-.145.676-.359.673-.733A.56.56,0,0,0,146.65,112.086Z" transform="translate(-89.82 -72.11)" fill="#aa9082" opacity="0.5"/>
        <path id="口-2" data-name="口" d="M141.955,109.354l-.863-.022a1.369,1.369,0,0,1-.767-.114.106.106,0,0,0-.135.162.854.854,0,0,0,.439.22c.158.032.3.043.44.064l.86.091c.574.058,1.153.1,1.738.1V109.4C143.1,109.4,142.53,109.367,141.955,109.354Z" transform="translate(-87.867 -70.641)" fill="#ac6e68"/>
        <g id="目-2" data-name="目" transform="translate(47.239 25.262)">
          <path id="パス_3385" data-name="パス 3385" d="M131.092,82.837a4.139,4.139,0,0,1,2.636-.494,2.74,2.74,0,0,1,1.035.343,1.573,1.573,0,0,1,.587,1.21c-.042.231-.375.23-.615.231-.628,0-1.373.036-2-.011a1.775,1.775,0,0,1-1.121-.247C131.391,83.671,130.695,83.1,131.092,82.837Z" transform="translate(-130.409 -82.212)" fill="#fff"/>
          <path id="パス_3386" data-name="パス 3386" d="M132.223,82.145a9.362,9.362,0,0,0-2.006.224c-.221.05-.106.239.114.19a8.528,8.528,0,0,1,1.818-.2c.1,0,.19-.034.211-.095S132.319,82.145,132.223,82.145Z" transform="translate(-129.964 -82.133)" fill="#aa9082"/>
          <path id="パス_3387" data-name="パス 3387" d="M135.552,82.5a1.065,1.065,0,1,1-1.687-.07,3.546,3.546,0,0,1,1.687.07Z" transform="translate(-131.755 -82.241)" fill="#37230e"/>
          <path id="パス_3388" data-name="パス 3388" d="M130.064,82.836a2.325,2.325,0,0,1,.968-.518,4.456,4.456,0,0,1,1.21-.194c.226,0,.452,0,.678.008a2.971,2.971,0,0,1,1.344.349,1.383,1.383,0,0,1,.593.776,1.5,1.5,0,0,1,.071.714.118.118,0,0,1-.034.082c-.016.012-.556-.019-.557-.02a.691.691,0,0,0,.152-.086.341.341,0,0,0,.083-.134.433.433,0,0,0,.028-.113,1.266,1.266,0,0,0-.037-.562,1.426,1.426,0,0,0-1.112-.758,3.907,3.907,0,0,0-2.292.194,2.113,2.113,0,0,0-.767.41,1.385,1.385,0,0,0,.339.5c.024.023,0,.059-.033.052a4.716,4.716,0,0,1-.873-.353C129.815,83.065,129.985,82.914,130.064,82.836Z" transform="translate(-129.825 -82.122)" fill="#2a2827"/>
          <ellipse id="楕円形_74" data-name="楕円形 74" cx="0.457" cy="0.457" rx="0.457" ry="0.457" transform="translate(2.467 0.47)" fill="#2a2827" opacity="0.52" style="mix-blend-mode: multiply;isolation: isolate"/>
        </g>
        <path id="眉毛-2" data-name="眉毛" d="M126.689,77.262c-.019-.025-.006-.052.063-.077a13.561,13.561,0,0,1,6.561-.235c.549.084,1.123.386.821.944a.479.479,0,0,1-.176.192.557.557,0,0,1-.357.051c-1.6-.248-3.175-.6-4.787-.768-.22-.023-.44-.039-.66-.045C127.666,77.315,127.177,77.286,126.689,77.262Z" transform="translate(-80.984 -54.083)" fill="#7a6a56"/>
        <path id="パス_3389" data-name="パス 3389" d="M146.739,54.429a11.7,11.7,0,0,0-1.542-4.8,23.078,23.078,0,0,0-2.521-3.87,15.337,15.337,0,0,0-3.385-3.115,14.639,14.639,0,0,0-4.371-1.974,15.287,15.287,0,0,0-6.865,0,14.633,14.633,0,0,0-4.371,1.974,15.338,15.338,0,0,0-3.385,3.115,23.079,23.079,0,0,0-2.521,3.87,11.7,11.7,0,0,0-1.542,4.8q-.015.317,0,.633c.014.339.307-.71.449-.33.219.41.515.76.7,1.189.78,1.821,1.236,3.756,1.844,5.636q.261.807.521,1.613a.1.1,0,0,0,.2-.027c-.013-1.094-.019-2.189-.055-3.283-.022-.67-.21-1.68.5-2.079.344-.194.785-.252,1.038-.581.382-.495.2-1.273.216-1.855a4.037,4.037,0,0,1,1.124-2.662,1.438,1.438,0,0,1,1.183-.619c.653.06,1.317.277,1.97.377a35.69,35.69,0,0,0,5.188.256c.128,0,.254,0,.382,0s.254,0,.382,0a35.69,35.69,0,0,0,5.188-.256c.652-.1,1.317-.317,1.97-.377a1.438,1.438,0,0,1,1.183.619,4.037,4.037,0,0,1,1.124,2.662c.018.582-.166,1.36.216,1.855.253.329.694.387,1.038.581.707.4.519,1.409.5,2.079-.035,1.094-.042,2.189-.055,3.283a.1.1,0,0,0,.2.027l.521-1.613c.608-1.88,1.065-3.815,1.844-5.636.184-.429.48-.779.7-1.189.142-.38.435.669.449.33Q146.754,54.746,146.739,54.429Z" transform="translate(-75.696 -35.565)" fill="#604c3f"/>
        <g id="グループ_3020" data-name="グループ 3020" transform="translate(5.552 46.784)">
          <path id="パス_3390" data-name="パス 3390" d="M219.591,602.276a2.033,2.033,0,0,0-.4-.768,5.639,5.639,0,0,0-1.234-.979,3.936,3.936,0,0,1-1.053-.976.131.131,0,0,0-.182-.033.132.132,0,0,0-.043.166,3.779,3.779,0,0,0,1.009,1.2,5.8,5.8,0,0,1,1.05.974,1.435,1.435,0,0,1,.26.574,3.1,3.1,0,0,1,.074.68c0,.466-.073.912-.118,1.392v.008a.249.249,0,0,0,.462.15,2.7,2.7,0,0,0,.312-1.576A3.735,3.735,0,0,0,219.591,602.276Z" transform="translate(-132.637 -368.337)" fill="#bb8f70"/>
          <path id="パス_3391" data-name="パス 3391" d="M225.695,602.1a3.2,3.2,0,0,0-.341-.649,10.948,10.948,0,0,0-.857-1.085c-.3-.344-.61-.67-.877-1.024v0a.093.093,0,0,0-.155.1c.467.8,1.064,1.489,1.488,2.252a2.712,2.712,0,0,1,.252.567,3.317,3.317,0,0,1,.124.61,1.018,1.018,0,0,1-.089.511c-.074.176-.18.368-.271.575a.246.246,0,0,0,.123.326.249.249,0,0,0,.287-.063,2.606,2.606,0,0,0,.4-.6,1.4,1.4,0,0,0,.107-.813A3.844,3.844,0,0,0,225.695,602.1Z" transform="translate(-136.091 -368.236)" fill="#bb8f70"/>
          <path id="パス_3392" data-name="パス 3392" d="M229.143,598.478a.108.108,0,0,0-.152-.009.109.109,0,0,0-.018.14,6.424,6.424,0,0,1,.865,2.094,4.225,4.225,0,0,1-.086,2.136v.005a.245.245,0,0,0,.442.2,2.382,2.382,0,0,0,.317-1.235,4.55,4.55,0,0,0-.194-1.229A5.585,5.585,0,0,0,229.143,598.478Z" transform="translate(-138.892 -367.8)" fill="#bb8f70"/>
          <path id="パス_3393" data-name="パス 3393" d="M232.73,596.333a.086.086,0,0,0-.122,0,.088.088,0,0,0,0,.114,4.991,4.991,0,0,1,1,2.014,4.284,4.284,0,0,1-.054,2.161v0a.244.244,0,0,0,.459.162,3.53,3.53,0,0,0-.014-2.437A4.772,4.772,0,0,0,232.73,596.333Z" transform="translate(-140.74 -366.716)" fill="#bb8f70"/>
          <path id="パス_3394" data-name="パス 3394" d="M155.191,143.413a4.659,4.659,0,0,0-2.14,1.72.245.245,0,0,0,.38.3l0,0a7.6,7.6,0,0,1,4.5-1.724l5.138-.654c1.717-.222,3.429-.475,5.143-.725s3.425-.523,5.133-.815a.023.023,0,0,0,.019-.027.023.023,0,0,0-.024-.019c-1.731.091-3.461.194-5.186.335s-3.454.263-5.177.424l-2.585.243c-.863.088-1.717.153-2.594.274A10.3,10.3,0,0,0,155.191,143.413Z" transform="translate(-100.058 -135.226)" fill="#bb8f70"/>
          <path id="パス_3395" data-name="パス 3395" d="M183.689,179.326a.1.1,0,0,0-.1.079,31.8,31.8,0,0,1-1.436,5.369c-.329.862-.687,1.712-1.085,2.542a12.111,12.111,0,0,1-1.377,2.319,4.379,4.379,0,0,1-2.057,1.466,13.654,13.654,0,0,1-2.664.507q-2.783.361-5.55.864a.088.088,0,0,0,.019.175q2.812-.078,5.608-.305a12.468,12.468,0,0,0,2.852-.446,4.949,4.949,0,0,0,1.365-.677,5.344,5.344,0,0,0,1.09-1.05,11.484,11.484,0,0,0,1.442-2.514,21.838,21.838,0,0,0,1-2.664,24.519,24.519,0,0,0,.675-2.755,22.4,22.4,0,0,0,.309-2.809A.1.1,0,0,0,183.689,179.326Z" transform="translate(-108.398 -154.492)" fill="#bb8f70"/>
          <path id="パス_3396" data-name="パス 3396" d="M171.833,231.977a22.469,22.469,0,0,0-1.676,7.73,21.737,21.737,0,0,0,1.041,7.841,45.668,45.668,0,0,1-.42-7.815A42.7,42.7,0,0,1,171.833,231.977Z" transform="translate(-108.751 -181.289)" fill="#bb8f70"/>
          <path id="パス_3397" data-name="パス 3397" d="M169.908,300.562c-1.638,2.536-3.113,5.158-4.54,7.8-.706,1.327-1.411,2.655-2.076,4l-1,2.023c-.314.684-.646,1.359-.944,2.051a.244.244,0,0,0,.432.226c.4-.64.764-1.3,1.146-1.945l1.094-1.973c.729-1.315,1.418-2.652,2.105-3.988,1.36-2.682,2.672-5.388,3.821-8.18a.023.023,0,0,0-.013-.03A.023.023,0,0,0,169.908,300.562Z" transform="translate(-104.269 -216.19)" fill="#bb8f70"/>
          <path id="パス_3398" data-name="パス 3398" d="M153,137.542a14.034,14.034,0,0,0,3.131-3.945,14.652,14.652,0,0,0,1.654-4.754.078.078,0,0,0-.149-.041,37.627,37.627,0,0,1-2.1,4.463,43.121,43.121,0,0,1-2.695,4.127.112.112,0,0,0,.163.15Z" transform="translate(-99.901 -128.753)" fill="#bb8f70"/>
          <path id="パス_3399" data-name="パス 3399" d="M183.107,450.115c-.226-.79-.419-1.589-.581-2.4s-.287-1.641-.431-2.5a8.344,8.344,0,0,0-.3,2.578,10.843,10.843,0,0,0,.389,2.581,10.635,10.635,0,0,0,.993,2.412,8.38,8.38,0,0,0,1.582,2.059l-.889-2.378C183.586,451.687,183.337,450.9,183.107,450.115Z" transform="translate(-114.718 -289.816)" fill="#bb8f70"/>
          <path id="パス_3400" data-name="パス 3400" d="M148.629,202.331l0-.006a.246.246,0,0,0-.455.172,1.84,1.84,0,0,0,.449.848,2.437,2.437,0,0,0,.761.556,3.116,3.116,0,0,0,.867.265,3.277,3.277,0,0,0,.884.029,10.108,10.108,0,0,1-1.483-.768A3.1,3.1,0,0,1,148.629,202.331Z" transform="translate(-97.513 -166.133)" fill="#bb8f70"/>
          <path id="パス_3401" data-name="パス 3401" d="M246.272,344.736c-.214.731-.421,1.463-.613,2.2l-.558,2.2a3.185,3.185,0,0,1-.413.972,1.661,1.661,0,0,1-.813.668.036.036,0,0,0-.023.045.037.037,0,0,0,.033.025,1.526,1.526,0,0,0,1.08-.511,2.832,2.832,0,0,0,.591-1.06c.225-.755.364-1.485.54-2.231s.316-1.488.46-2.236.278-1.5.393-2.252C246.708,343.277,246.478,344,246.272,344.736Z" transform="translate(-146.473 -237.566)" fill="#bb8f70"/>
          <path id="パス_3402" data-name="パス 3402" d="M147.051,208.951h0a.244.244,0,0,0-.244.244v19.174a.244.244,0,0,0,.244.244h0a.244.244,0,0,0,.244-.244V209.2A.244.244,0,0,0,147.051,208.951Z" transform="translate(-96.812 -169.57)" fill="#bb8f70"/>
          <path id="パス_3403" data-name="パス 3403" d="M74.52,599.553a3.936,3.936,0,0,1-1.053.976,5.639,5.639,0,0,0-1.234.979,2.033,2.033,0,0,0-.4.768,3.736,3.736,0,0,0-.135.81,2.7,2.7,0,0,0,.312,1.576.249.249,0,0,0,.462-.15V604.5c-.045-.48-.117-.926-.118-1.392a3.1,3.1,0,0,1,.074-.68,1.435,1.435,0,0,1,.26-.574,5.8,5.8,0,0,1,1.05-.974,3.78,3.78,0,0,0,1.009-1.2.133.133,0,0,0-.043-.166A.131.131,0,0,0,74.52,599.553Z" transform="translate(-58.308 -368.337)" fill="#bb8f70"/>
          <path id="パス_3404" data-name="パス 3404" d="M68.443,599.335v0c-.267.354-.581.68-.877,1.024a10.948,10.948,0,0,0-.857,1.085,3.2,3.2,0,0,0-.341.649,3.845,3.845,0,0,0-.192.707,1.4,1.4,0,0,0,.107.813,2.624,2.624,0,0,0,.4.6.249.249,0,0,0,.287.063.246.246,0,0,0,.123-.326c-.091-.207-.2-.4-.271-.575a1.018,1.018,0,0,1-.089-.511,3.32,3.32,0,0,1,.124-.61,2.714,2.714,0,0,1,.252-.567c.424-.762,1.021-1.456,1.488-2.252a.093.093,0,0,0-.155-.1Z" transform="translate(-55.493 -368.236)" fill="#bb8f70"/>
          <path id="パス_3405" data-name="パス 3405" d="M63.853,598.478a5.584,5.584,0,0,0-1.173,2.1,4.531,4.531,0,0,0-.194,1.229,2.382,2.382,0,0,0,.317,1.235.245.245,0,0,0,.442-.2v-.005a4.225,4.225,0,0,1-.086-2.136,6.424,6.424,0,0,1,.865-2.094.109.109,0,0,0-.018-.14A.108.108,0,0,0,63.853,598.478Z" transform="translate(-53.625 -367.8)" fill="#bb8f70"/>
          <path id="パス_3406" data-name="パス 3406" d="M60.183,596.333a4.772,4.772,0,0,0-1.263,2.023,3.53,3.53,0,0,0-.014,2.437.244.244,0,0,0,.459-.162v0a4.284,4.284,0,0,1-.054-2.161,4.99,4.99,0,0,1,1-2.014.088.088,0,0,0,0-.114A.086.086,0,0,0,60.183,596.333Z" transform="translate(-51.696 -366.716)" fill="#bb8f70"/>
          <path id="パス_3407" data-name="パス 3407" d="M105.292,142.331c1.714.25,3.427.5,5.143.725l5.138.654a7.6,7.6,0,0,1,4.5,1.724l0,0a.245.245,0,0,0,.38-.3,4.659,4.659,0,0,0-2.14-1.72,10.3,10.3,0,0,0-2.611-.665c-.877-.121-1.731-.186-2.594-.274l-2.585-.243c-1.724-.161-3.451-.291-5.177-.424s-3.456-.244-5.186-.335a.023.023,0,0,0-.024.019.023.023,0,0,0,.019.027C101.867,141.808,103.578,142.088,105.292,142.331Z" transform="translate(-72.973 -135.226)" fill="#bb8f70"/>
          <path id="パス_3408" data-name="パス 3408" d="M110.3,192.575a.089.089,0,0,0-.071-.1q-2.767-.507-5.55-.864a13.648,13.648,0,0,1-2.664-.507,4.379,4.379,0,0,1-2.057-1.466,12.086,12.086,0,0,1-1.377-2.319c-.4-.829-.756-1.679-1.085-2.542a31.8,31.8,0,0,1-1.436-5.369.1.1,0,0,0-.191.021,22.4,22.4,0,0,0,.309,2.809,24.417,24.417,0,0,0,.675,2.755,21.764,21.764,0,0,0,1,2.664,11.464,11.464,0,0,0,1.442,2.514,5.344,5.344,0,0,0,1.09,1.05,4.949,4.949,0,0,0,1.365.677,12.468,12.468,0,0,0,2.853.446q2.8.225,5.608.305A.088.088,0,0,0,110.3,192.575Z" transform="translate(-70.773 -154.492)" fill="#bb8f70"/>
          <path id="パス_3409" data-name="パス 3409" d="M122.69,239.707a22.48,22.48,0,0,0-1.676-7.73,42.7,42.7,0,0,1,1.055,7.755,45.668,45.668,0,0,1-.42,7.815A21.736,21.736,0,0,0,122.69,239.707Z" transform="translate(-83.618 -181.289)" fill="#bb8f70"/>
          <path id="パス_3410" data-name="パス 3410" d="M123.378,314.392l-1-2.023c-.664-1.349-1.37-2.677-2.076-4-1.427-2.646-2.9-5.268-4.54-7.8a.023.023,0,0,0-.028-.009.023.023,0,0,0-.013.03c1.149,2.792,2.462,5.5,3.821,8.18.687,1.337,1.376,2.673,2.105,3.988l1.094,1.973c.382.648.748,1.305,1.146,1.945a.244.244,0,0,0,.432-.226C124.023,315.751,123.692,315.076,123.378,314.392Z" transform="translate(-80.926 -216.19)" fill="#bb8f70"/>
          <path id="パス_3411" data-name="パス 3411" d="M136.451,137.542a.112.112,0,0,0,.163-.15,43.115,43.115,0,0,1-2.695-4.127,37.625,37.625,0,0,1-2.1-4.463.078.078,0,0,0-.149.041,14.652,14.652,0,0,0,1.654,4.754A14.034,14.034,0,0,0,136.451,137.542Z" transform="translate(-89.075 -128.753)" fill="#bb8f70"/>
          <path id="パス_3412" data-name="パス 3412" d="M109,447.712c-.163.814-.356,1.613-.581,2.4s-.479,1.572-.763,2.352l-.889,2.378a8.392,8.392,0,0,0,1.582-2.059,10.637,10.637,0,0,0,.993-2.412,10.843,10.843,0,0,0,.389-2.581,8.343,8.343,0,0,0-.3-2.578C109.292,446.072,109.166,446.9,109,447.712Z" transform="translate(-76.334 -289.816)" fill="#bb8f70"/>
          <path id="パス_3413" data-name="パス 3413" d="M142.906,202.324l0,.006a3.1,3.1,0,0,1-1.02,1.1,10.09,10.09,0,0,1-1.483.768,3.28,3.28,0,0,0,.885-.029,3.116,3.116,0,0,0,.867-.265,2.437,2.437,0,0,0,.761-.556,1.841,1.841,0,0,0,.449-.848.246.246,0,0,0-.455-.172Z" transform="translate(-93.54 -166.133)" fill="#bb8f70"/>
          <path id="パス_3414" data-name="パス 3414" d="M46.7,350.1a3.2,3.2,0,0,1-.412-.972l-.558-2.2c-.191-.736-.4-1.469-.612-2.2s-.436-1.459-.679-2.183c.115.755.242,1.506.393,2.252s.294,1.494.46,2.236.315,1.476.54,2.231a2.832,2.832,0,0,0,.591,1.06,1.526,1.526,0,0,0,1.08.511.037.037,0,0,0,.033-.025.036.036,0,0,0-.023-.045A1.664,1.664,0,0,1,46.7,350.1Z" transform="translate(-44.442 -237.566)" fill="#bb8f70"/>
        </g>
        <path id="パス_3415" data-name="パス 3415" d="M146.755,43.5a8.712,8.712,0,0,0-3.659-4.33,8.5,8.5,0,0,0-1.332-.638l1.725-.168a.111.111,0,0,0,.078-.188,2.981,2.981,0,0,0-2.058-.884,2.8,2.8,0,0,0-1.176.241c-.007,0-.015-.006-.021-.01a.5.5,0,0,1-.213-.358s0-.009,0-.014a5.649,5.649,0,0,0-3.038-5.937c-.088-.045-.221.054-.15.15a4.979,4.979,0,0,1,.924,3.543,7.1,7.1,0,0,0-2.946-3,10.712,10.712,0,0,0-5.165-1.226,21.888,21.888,0,0,0-3.259.249l-.029,0c-.125.018-.09.215.029.216a5.669,5.669,0,0,1,2.56.684,4.856,4.856,0,0,1,1.129.811,1.461,1.461,0,0,1,.48.924s-.708-.13-1.009-.188c-2.322-.447-4.742-1.048-7.053-.221a7.808,7.808,0,0,0-2.117,1.158.11.11,0,0,0,.11.189,4.057,4.057,0,0,1,1.976-.439,2.817,2.817,0,0,1,1.892.542,9.521,9.521,0,0,1-1.057-.069,7.553,7.553,0,0,0-2.549.344.11.11,0,0,0,.029.216,6.263,6.263,0,0,1,2.768.793,7.257,7.257,0,0,0-5.244,1.255,6.836,6.836,0,0,0-1.255,1.15.11.11,0,0,0,.133.172A7.1,7.1,0,0,1,121.577,38a11.612,11.612,0,0,0-5.04,2.774,11.313,11.313,0,0,0-1.2,1.318.11.11,0,0,0,.133.172,11.584,11.584,0,0,1,3.849-.928,8.912,8.912,0,0,0-3.765,4.7,8.484,8.484,0,0,0-.407,1.825c-.012.108.158.15.2.055a5.268,5.268,0,0,1,2.211-2.318.109.109,0,0,0,.162.086,24.9,24.9,0,0,1,12.134-3.27,29.456,29.456,0,0,1,4.732.376,23.029,23.029,0,0,1,2.4.642c.378.1.763.16,1.131.3a3.092,3.092,0,0,0,1.384.308c1.544-.149,2.27,1.086,2.917,2.291a13.831,13.831,0,0,1,1.193,3.337,12.4,12.4,0,0,1,.32,2.153c.019.308.244-.054.272-.1a7.471,7.471,0,0,0,.327-.762l.654-1.522a4.4,4.4,0,0,1,.158,1.882c-.024.178.135.444.239.168a2.181,2.181,0,0,0,.22-.727,13.505,13.505,0,0,0,.144-5.14,10.125,10.125,0,0,0-.77-2.509,8.711,8.711,0,0,0-.638-1.146,4.254,4.254,0,0,1-.731-1.167,5.916,5.916,0,0,1,1.446,1.254,13.468,13.468,0,0,1,1.3,1.538C146.621,43.675,146.8,43.624,146.755,43.5Z" transform="translate(-75.148 -30.678)" fill="#604c3f"/>
        <path id="パス_3416" data-name="パス 3416" d="M139.976,48.8a4.651,4.651,0,0,0-.035-.512c-.447-3.612-4.051-6.034-7.484-6.187a9.527,9.527,0,0,0-4.356.854,11.094,11.094,0,0,0-3.625,2.688.11.11,0,0,0,.122.173,11.344,11.344,0,0,1,7.119-.666,17.415,17.415,0,0,0-4.471,2.2,17.765,17.765,0,0,0-3.9,3.645,17.168,17.168,0,0,0-1.654,2.525.11.11,0,0,0,.183.118,12.113,12.113,0,0,1,6.732-4.8c.057-.014.116-.022.174-.034a10.679,10.679,0,0,0-1.425,1.185,10.373,10.373,0,0,0-1.033,1.2.11.11,0,0,0,.167.141,8.36,8.36,0,0,1,3.325-2.007,4.689,4.689,0,0,1,3.109-.123,8.117,8.117,0,0,0-1.566.33,19.251,19.251,0,0,0-3.235,1.215,9.075,9.075,0,0,0-2.49,1.787,7.318,7.318,0,0,0-1.087,1.434,5.11,5.11,0,0,0-.471,1.069.792.792,0,0,1-.061.2c.315-.435.578-.9.879-1.347a8.474,8.474,0,0,1,2.278-2.256,7.524,7.524,0,0,1,3.086-1.261c1.556-.229,3.777.32,4.023,2.161a1.736,1.736,0,0,1-.017.57c-.048.241-.323.739.1.74a1.385,1.385,0,0,0,1.089-.612,2.735,2.735,0,0,0,.408-.844c-.04.137,1.268.117,1.384.1A3.468,3.468,0,0,0,139.976,48.8Z" transform="translate(-78.45 -36.488)" fill="#604c3f" opacity="0.15" style="mix-blend-mode: multiply;isolation: isolate"/>
        <path id="パス_3417" data-name="パス 3417" d="M143.86,84.642c.47-1.956,0-2.743-1.347-3.332Z" transform="translate(-89.067 -56.447)" fill="#aa9082" opacity="0.5"/>
        <path id="パス_3418" data-name="パス 3418" d="M145.716,97.177a.564.564,0,0,0-.356-.521A5,5,0,0,1,144,96.171a.863.863,0,0,1-.346-.812c0-.267,0-.534.008-.8a.348.348,0,0,0-.242-.324.367.367,0,0,0-.489.229c-.088.39-.173.782-.248,1.176a6.663,6.663,0,0,0-.171,1.182.463.463,0,0,0,.367.435,3.1,3.1,0,0,0,.416.056,1.645,1.645,0,0,1,.664.238c.154.1.271.266.449.321a.555.555,0,0,0,.435-.069,1.076,1.076,0,0,1,.321-.1c.143-.02.269.017.382-.094A.569.569,0,0,0,145.716,97.177Z" transform="translate(-89.071 -63.013)" fill="#aa9082" opacity="0.5"/>
        <ellipse id="楕円形_75" data-name="楕円形 75" cx="0.292" cy="0.292" rx="0.292" ry="0.292" transform="translate(49.346 25.574)" fill="#fff"/>
        <ellipse id="楕円形_76" data-name="楕円形 76" cx="0.292" cy="0.292" rx="0.292" ry="0.292" transform="translate(60.594 25.574)" fill="#fff"/>
      </g>
      <path id="パス_3419" data-name="パス 3419" d="M92.418,181.528l24.107.093,24.107-.093c.263-.847.5-1.7.7-2.563l.214-1.428,4.138-39.287a15.067,15.067,0,0,0-2.914-1.046h0l-26.249,4.114L90.276,137.2h0a15.073,15.073,0,0,0-2.914,1.046L91.5,177.537l.214,1.428C91.914,179.828,92.155,180.681,92.418,181.528Z" transform="translate(-11805.734 -672.716)" fill="#639cbc" opacity="0.6"/>
      <path id="パス_3420" data-name="パス 3420" d="M146.225,261.474c-2.222-9.906-3.148-19.68-1.246-29.5H97.4c1.9,9.817.976,19.591-1.246,29.5-.053.237-.107.474-.16.711h50.388C146.332,261.948,146.278,261.711,146.225,261.474Z" transform="translate(-11810.4 -721.186)" fill="#639cbc" opacity="0.6"/>
      <g id="グループ_3022" data-name="グループ 3022" transform="translate(-11662.781 -533.625)">
        <path id="パス_3421" data-name="パス 3421" d="M202.329,180.793c.517,1.154,1.2,2.226,1.656,3.41a18.719,18.719,0,0,1,.848,2.912l12.156-4.1a17.168,17.168,0,0,1-1.128-3.7c-1.225-8.425-2.2-16.85-2.727-25.356-.322-5.176-2.121-9.881-6.93-12.589-.039-.027-.079-.051-.118-.078l-4.41,38.1C201.917,179.854,202.113,180.311,202.329,180.793Z" transform="translate(-201.675 -141.295)" fill="#639cbc" opacity="0.6"/>
        <path id="パス_3422" data-name="パス 3422" d="M208.574,233.111c.791,8.742,4.235,16.452,8.582,23.782a68.257,68.257,0,0,1,3.983,8.23c.6,1.418,1.191,2.84,1.811,4.249a16.428,16.428,0,0,1,.873,2.253l7.827-2.163c-.324-1.022-.791-2.018-1.026-3.05-1.778-7.79-3.01-15.731-4.58-23.567-.4-1.985-.488-4.084-1.259-5.963a12.145,12.145,0,0,0-1.291-3.2,37.024,37.024,0,0,1-2.462-4.817c-.06-.189-.125-.376-.192-.563L208.507,232.6C208.529,232.768,208.559,232.939,208.574,233.111Z" transform="translate(-205.152 -185.578)" fill="#639cbc" opacity="0.6"/>
        <path id="パス_3423" data-name="パス 3423" d="M246.31,324.338a58.966,58.966,0,0,0-1.245-6.038c-.473-1.47-.62-2.967-.976-4.446l-7.891,2.232a4.78,4.78,0,0,1,0,1.03l-.094.855c-.252.6-.588,1.184-.884,1.751a17.346,17.346,0,0,0-1.545,3.731,5.067,5.067,0,0,0-1.09,2.364,14.119,14.119,0,0,0,.178,4.348,7.7,7.7,0,0,0,.393,2.235,1.262,1.262,0,0,0,1.667.655,1.541,1.541,0,0,0,.737-1.436,14.527,14.527,0,0,1,.116-1.795,9.859,9.859,0,0,1,1.113-3.236l.7.771.774.853a17.379,17.379,0,0,1-1.493,4.9.748.748,0,0,0-.059.441c-.055.115-.106.232-.164.346-.032.064-.069.128-.107.191l-.817.286a2.2,2.2,0,0,0-2.475.679.767.767,0,0,0,.446,1.235,21.784,21.784,0,0,0,3.355.224,6.5,6.5,0,0,0,.824-.026.8.8,0,0,0,.479-.252.717.717,0,0,0,.074.006c3.7-.09,5.977-3.646,7.58-6.535a5.716,5.716,0,0,0,.8-2.547A11.72,11.72,0,0,0,246.31,324.338Z" transform="translate(-217.351 -229.119)" fill="#639cbc" opacity="0.6"/>
      </g>
      <g id="グループ_3023" data-name="グループ 3023" transform="translate(-11745 -533.625)">
        <path id="パス_3424" data-name="パス 3424" d="M76.407,180.793c-.517,1.154-1.2,2.226-1.656,3.41a18.666,18.666,0,0,0-.848,2.912l-12.156-4.1a17.167,17.167,0,0,0,1.128-3.7c1.225-8.425,2.2-16.85,2.727-25.356.322-5.176,2.121-9.881,6.93-12.589.039-.027.079-.051.118-.078l4.41,38.1C76.819,179.854,76.622,180.311,76.407,180.793Z" transform="translate(-47.697 -141.295)" fill="#639cbc" opacity="0.6"/>
        <path id="パス_3425" data-name="パス 3425" d="M62.046,233.111c-.791,8.742-4.235,16.452-8.582,23.782a68.256,68.256,0,0,0-3.983,8.23c-.6,1.418-1.191,2.84-1.811,4.249a16.423,16.423,0,0,0-.873,2.253l-7.827-2.163c.324-1.022.791-2.018,1.026-3.05,1.778-7.79,3.01-15.731,4.58-23.567.4-1.985.488-4.084,1.259-5.963a12.129,12.129,0,0,1,1.291-3.2,37.087,37.087,0,0,0,2.462-4.817c.06-.189.125-.376.192-.563L62.113,232.6C62.092,232.768,62.062,232.939,62.046,233.111Z" transform="translate(-36.105 -185.578)" fill="#639cbc" opacity="0.6"/>
        <path id="パス_3426" data-name="パス 3426" d="M33.54,324.338a58.961,58.961,0,0,1,1.245-6.038c.473-1.47.62-2.967.976-4.446l7.891,2.232a4.781,4.781,0,0,0,0,1.03l.094.855c.252.6.588,1.184.884,1.751a17.347,17.347,0,0,1,1.545,3.731,5.067,5.067,0,0,1,1.09,2.364,14.118,14.118,0,0,1-.178,4.348,7.7,7.7,0,0,1-.393,2.235,1.262,1.262,0,0,1-1.667.655,1.541,1.541,0,0,1-.737-1.436,14.536,14.536,0,0,0-.116-1.795,9.86,9.86,0,0,0-1.113-3.236l-.7.771-.774.853a17.394,17.394,0,0,0,1.493,4.9.745.745,0,0,1,.06.441c.055.115.106.232.164.346.032.064.069.128.107.191l.817.286a2.2,2.2,0,0,1,2.475.679.767.767,0,0,1-.446,1.235,21.784,21.784,0,0,1-3.355.224,6.5,6.5,0,0,1-.824-.026.8.8,0,0,1-.479-.252.717.717,0,0,1-.074.006c-3.7-.09-5.977-3.646-7.58-6.535a5.723,5.723,0,0,1-.8-2.547A11.742,11.742,0,0,1,33.54,324.338Z" transform="translate(-33.136 -229.119)" fill="#639cbc" opacity="0.6"/>
      </g>
      <g id="グループ_3024" data-name="グループ 3024" transform="translate(-11687.806 -444.289)">
        <path id="パス_3427" data-name="パス 3427" d="M179.185,380.715a49.993,49.993,0,0,1-.3-5.29c-.014-2.1.077-4.207.215-6.3.577-8.741,2.073-17.451,1.287-26.248a160.868,160.868,0,0,0-2.725-17.711l-26.949,10.971a3.979,3.979,0,0,1,.342,1.028,12.638,12.638,0,0,0,.07,2.88,81.543,81.543,0,0,0,2.512,14.181c2.286,8.456,5.789,16.584,6.943,25.343a26.373,26.373,0,0,0,1.232,5.442C168.239,375.921,175.635,378.7,179.185,380.715Z" transform="translate(-150.713 -325.168)" fill="#639cbc" opacity="0.6"/>
        <path id="パス_3428" data-name="パス 3428" d="M214.865,578.612a19.078,19.078,0,0,0-1.253-1.947,16.551,16.551,0,0,1-1.187-1.6,36.43,36.43,0,0,1-2.8-5.374,17.47,17.47,0,0,1-.619-2.032c-.164-.69-.313-1.381-.457-2.072a18.53,18.53,0,0,0-10.557,1.881l.085,1.27a7.983,7.983,0,0,0,2.238,7.228c.449,1.223.894,2.536,1.257,3.943.842,3.267,1.984,6.366,5.6,7.619l1.833.016c.017-.048.035-.091.053-.137-.018.046-.036.09-.053.137l3.044-.4c-.029-.056-.057-.1-.086-.155.029.053.057.1.086.155,1-.4,2.036-.714,2.987-1.2a7.736,7.736,0,0,0,1.339-.847,2.762,2.762,0,0,0,.464-.449c1-1.137.732-2.462-.609-4.395A15.156,15.156,0,0,0,214.865,578.612Z" transform="translate(-174.744 -447.449)" fill="#639cbc" opacity="0.6"/>
        <path id="パス_3429" data-name="パス 3429" d="M194.7,451.011a44.038,44.038,0,0,0-1.676-5.55,30.035,30.035,0,0,1-1.51-5.808c-3.575-2.219-10.945-5.052-17.068,3.841a15.6,15.6,0,0,0,.9,1.721,15.849,15.849,0,0,1,2.4,7.671C187.795,454.679,192.616,452.584,194.7,451.011Z" transform="translate(-162.793 -382.287)" fill="#639cbc" opacity="0.6"/>
        <path id="パス_3430" data-name="パス 3430" d="M199.6,515.148a80.974,80.974,0,0,1-.992-22.5c.719-8.065,1.245-16.074-.3-24.04-5.721,4.023-13.083,3.06-17.355,1.972-.035.523-.064,1.045-.079,1.565a41.492,41.492,0,0,0,3.345,18.28c3.455,8.479,4.345,17.452,4.971,26.448A21.425,21.425,0,0,1,199.6,515.148Z" transform="translate(-166.029 -398.173)" fill="#639cbc" opacity="0.6"/>
      </g>
      <g id="グループ_3025" data-name="グループ 3025" transform="translate(-11733.262 -444.289)">
        <path id="パス_3431" data-name="パス 3431" d="M84.528,380.715a49.991,49.991,0,0,0,.3-5.29c.014-2.1-.077-4.207-.215-6.3-.577-8.741-2.073-17.451-1.287-26.248a160.753,160.753,0,0,1,2.725-17.711L113,336.139a4,4,0,0,0-.342,1.028,12.64,12.64,0,0,1-.07,2.88,81.592,81.592,0,0,1-2.511,14.181c-2.286,8.456-5.789,16.584-6.944,25.343a26.373,26.373,0,0,1-1.232,5.442C95.473,375.921,88.078,378.7,84.528,380.715Z" transform="translate(-70.304 -325.168)" fill="#639cbc" opacity="0.6"/>
        <path id="パス_3432" data-name="パス 3432" d="M59.614,578.612a19,19,0,0,1,1.253-1.947,16.627,16.627,0,0,0,1.187-1.6,36.338,36.338,0,0,0,2.8-5.374,17.473,17.473,0,0,0,.619-2.032c.164-.69.314-1.381.457-2.072a18.53,18.53,0,0,1,10.557,1.881q-.043.636-.085,1.27a7.983,7.983,0,0,1-2.239,7.228,41.341,41.341,0,0,0-1.256,3.943c-.843,3.267-1.984,6.366-5.6,7.619l-1.833.016c-.017-.048-.035-.091-.053-.137.018.046.036.09.053.137l-3.044-.4c.029-.056.057-.1.086-.155-.029.053-.057.1-.086.155-1-.4-2.036-.714-2.987-1.2a7.736,7.736,0,0,1-1.339-.847,2.758,2.758,0,0,1-.464-.449c-1-1.137-.733-2.462.609-4.395A15.157,15.157,0,0,1,59.614,578.612Z" transform="translate(-57.04 -447.449)" fill="#639cbc" opacity="0.6"/>
        <path id="パス_3433" data-name="パス 3433" d="M79,451.011a44.04,44.04,0,0,1,1.676-5.55,30.035,30.035,0,0,0,1.51-5.808c3.575-2.219,10.945-5.052,17.068,3.841a15.6,15.6,0,0,1-.9,1.721,15.844,15.844,0,0,0-2.4,7.671C85.913,454.679,81.091,452.584,79,451.011Z" transform="translate(-68.218 -382.287)" fill="#639cbc" opacity="0.6"/>
        <path id="パス_3434" data-name="パス 3434" d="M75.625,515.148a80.973,80.973,0,0,0,.991-22.5c-.719-8.065-1.245-16.074.3-24.04,5.721,4.023,13.083,3.06,17.355,1.972.035.523.064,1.045.079,1.565a41.492,41.492,0,0,1-3.345,18.28c-3.455,8.479-4.345,17.452-4.971,26.448A21.423,21.423,0,0,0,75.625,515.148Z" transform="translate(-66.499 -398.173)" fill="#639cbc" opacity="0.6"/>
      </g>
    </g>
    <g id="グループ_3037" data-name="グループ 3037" transform="translate(11828.67 1796.732)">
      <g id="グループ_3029" data-name="グループ 3029" transform="translate(-11603.086 -587.522)">
        <path id="パス_3435" data-name="パス 3435" d="M545.546,184.174a58.6,58.6,0,0,0-1.237-6c-.529-1.646-.647-3.327-1.115-4.976-.317-1.119-.857-2.2-1.114-3.319-.762-3.34-1.421-6.708-2.052-10.083-.538-2.88-2.383-12.759-2.5-13.332a31.891,31.891,0,0,0-1.25-5.925,13.915,13.915,0,0,0-.743-2.125,9.51,9.51,0,0,0-.54-1.051c-.5-.824-.959-1.657-1.383-2.5q-.573-1.136-1.063-2.289a32.6,32.6,0,0,1-1.685-5.232c-1.217-8.371-2.185-16.742-2.71-25.194a20.1,20.1,0,0,0-1.068-5.53,12.618,12.618,0,0,0-5.818-6.978,14,14,0,0,0-4.7-2.073c-5.4-1.354-11-2.286-15.535-5.763a2.938,2.938,0,0,1-.724-.889,8.477,8.477,0,0,1-.678-1.592,7.341,7.341,0,0,1-.294-1.04c0-.02-.008-.039-.011-.058a14.624,14.624,0,0,1-.065-3.843,11.5,11.5,0,0,1,.977-3.517,15.783,15.783,0,0,0,1.134-2.5c.1-.358.187-.59.268-.6,1.221-.18,1.944-1.348,2.462-2.335a16.029,16.029,0,0,0,1.284-3.254,8.234,8.234,0,0,0,.359-1.922,2.081,2.081,0,0,0-.69-1.729l-.009-.006a1.871,1.871,0,0,0-.325-.214l-.092-.044a1.817,1.817,0,0,0-.341-.121l-.021-.006a1.848,1.848,0,0,0-.4-.042l-.057,0a1.938,1.938,0,0,0-.388.048,1.958,1.958,0,0,0-.814.4c.064-.052.029-.527.034-.62.077-1.45.348-2.881.424-4.331a12.726,12.726,0,0,0-.342-2.9,16.114,16.114,0,0,0-1.121-3.851,8.978,8.978,0,0,0-.992-1.677,13.738,13.738,0,0,0-1.375-1.409,11.368,11.368,0,0,0-2.407-1.822,12.328,12.328,0,0,0-1.907-.876l-.026-.009q-.316-.113-.638-.21l-.015,0-.077-.023-.022-.006c-.121-.035-.241-.068-.362-.1l-.016,0c-.039-.01-.079-.023-.118-.033a9.889,9.889,0,0,0-2.72-.381H490.9c-.2,0-.419-.006-.66-.006s-.46,0-.66.006h-.031a9.882,9.882,0,0,0-2.72.381c-.04.01-.079.022-.118.033l-.016,0c-.121.032-.241.065-.361.1l-.023.006-.077.023-.015,0q-.322.1-.638.21l-.026.009a12.305,12.305,0,0,0-1.906.876,11.37,11.37,0,0,0-2.407,1.822,13.828,13.828,0,0,0-1.375,1.409,8.971,8.971,0,0,0-.991,1.677,16.1,16.1,0,0,0-1.122,3.851,12.752,12.752,0,0,0-.342,2.9c.076,1.451.346,2.882.423,4.331,0,.093-.03.568.034.62a1.946,1.946,0,0,0-.814-.4,1.939,1.939,0,0,0-.387-.048l-.057,0a1.85,1.85,0,0,0-.4.042l-.021.006a1.818,1.818,0,0,0-.341.121c-.031.014-.061.029-.091.044a1.872,1.872,0,0,0-.325.214l-.008.006a2.08,2.08,0,0,0-.69,1.729,8.251,8.251,0,0,0,.359,1.922,16.052,16.052,0,0,0,1.284,3.254c.518.987,1.241,2.155,2.463,2.335.081.012.172.244.268.6a15.863,15.863,0,0,0,1.134,2.5,11.486,11.486,0,0,1,.977,3.517,14.645,14.645,0,0,1-.065,3.843c0,.019-.008.038-.012.058a7.268,7.268,0,0,1-.294,1.04,8.512,8.512,0,0,1-.677,1.592,2.946,2.946,0,0,1-.725.889c-4.539,3.477-10.136,4.409-15.535,5.763a14,14,0,0,0-4.7,2.073,12.618,12.618,0,0,0-5.818,6.978,20.1,20.1,0,0,0-1.068,5.53c-.526,8.452-1.493,16.823-2.711,25.194a32.548,32.548,0,0,1-1.685,5.232q-.488,1.153-1.062,2.289c-.424.84-.883,1.673-1.383,2.5a9.416,9.416,0,0,0-.54,1.051,13.869,13.869,0,0,0-.743,2.125,31.855,31.855,0,0,0-1.251,5.925c-.115.573-1.96,10.452-2.5,13.332-.63,3.375-1.29,6.744-2.052,10.083-.256,1.123-.8,2.2-1.114,3.319-.467,1.649-.585,3.33-1.114,4.976a58.7,58.7,0,0,0-1.237,6,11.66,11.66,0,0,0-.4,2.8,5.672,5.672,0,0,0,.795,2.531c1.594,2.87,3.857,6.4,7.532,6.493a.714.714,0,0,0,.073-.006.8.8,0,0,0,.477.25,6.445,6.445,0,0,0,.819.026,21.647,21.647,0,0,0,3.334-.222.763.763,0,0,0,.444-1.228,2.19,2.19,0,0,0-2.46-.674l-.811-.284c-.037-.062-.073-.126-.105-.189-.057-.113-.108-.229-.163-.343a.736.736,0,0,0-.059-.438,18.214,18.214,0,0,1-1.483-4.866l.769-.848.695-.766a9.8,9.8,0,0,1,1.106,3.215,10.241,10.241,0,0,1,.1,1.275c.005.168.01.337.016.507a1.532,1.532,0,0,0,.732,1.427,1.254,1.254,0,0,0,1.657-.65,7.67,7.67,0,0,0,.391-2.22l0-.028a13.875,13.875,0,0,0,.173-4.292,5.026,5.026,0,0,0-1.083-2.349,17.209,17.209,0,0,0-1.535-3.707c-.293-.563-.628-1.145-.878-1.74l-.094-.85a5.524,5.524,0,0,1,.344-2.476c.2-.57.45-1.13.7-1.7.616-1.4,1.2-2.813,1.8-4.222a67.708,67.708,0,0,1,3.958-8.176c4.319-7.283,7.741-14.943,8.527-23.629a17.278,17.278,0,0,1,1.105-4.6c.449-1.176,1.133-2.241,1.646-3.388.182-.408.35-.8.544-1.189.068-.136.139-.273.216-.41.067-.12.2-.318.347-.539.05-.077.1-.158.152-.239l.017-.027a2.949,2.949,0,0,0,.353-.721h0a.479.479,0,0,0,.02-.172,36.335,36.335,0,0,0,1.625,6.961c.021.092.036.184.056.276,2.171,10.11,1.262,20.168-1.025,30.366-2.5,11.159-5.251,22.315-6.275,33.758-.782,8.741.7,17.395,1.278,26.08.137,2.077.227,4.173.214,6.257,0,.045,0,.091,0,.137a48.914,48.914,0,0,1-.32,5.324,31.281,31.281,0,0,1-1.726,7.373,52.987,52.987,0,0,0-2.253,9.43c-.575,3.251-1.532,6.441-1.908,9.722-.647,5.646.3,11.132.536,16.672.253,5.912.8,11.81.3,17.668a39.829,39.829,0,0,1-1.4,7.793,5.25,5.25,0,0,0-1.454.618c-2.122,1.163-5.483,3.75-3.849,5.868a2.838,2.838,0,0,0,.323.357c.961,2.206,3.337,2.738,4.944,4.178,1.557,1.2,2.833,3.087,5.063,2.65a4.156,4.156,0,0,0,.8-.24l2.027-.392.006-.019-.006.019c1.835-.053,2.638-1.087,2.7-2.832a6.551,6.551,0,0,0-.2-3.4,5.114,5.114,0,0,1,.154-1.7,6.945,6.945,0,0,0,.093-1.787,104.069,104.069,0,0,1,2.537-18.484c.4-1.827.805-3.653,1.255-5.469a55.428,55.428,0,0,1,3.454-10.233,24.705,24.705,0,0,0,1.923-9.454c.145-3.394.344-6.845.246-10.239q-.034-1.2-.141-2.413a15.923,15.923,0,0,1,.186-2.573c.611-1.249,1.737-2.239,2.405-3.5a23.272,23.272,0,0,0,2.01-7.393,22.767,22.767,0,0,0,.484-3.236,16.493,16.493,0,0,1,.389-2.446c.121-.754.235-1.51.371-2.26,1.523-7.093,4.246-13.863,6.137-20.858a81.058,81.058,0,0,0,2.5-14.09,34.443,34.443,0,0,0,.084-3.673.336.336,0,0,1,.011-.115.416.416,0,0,1,.063-.108c.079-.077.153-.157.228-.238a1.885,1.885,0,0,0,.146-.143c.042-.048.078-.1.118-.151.015-.018.032-.033.046-.051.039-.048.072-.1.109-.147.07-.09.145-.177.211-.27.025-.036.046-.074.071-.11l.046-.072c.1-.158.2-.319.3-.485a12.109,12.109,0,0,0,.6-1.226.348.348,0,0,0,.019-.178.087.087,0,1,1,.052,0,.344.344,0,0,0,.019.178,12.085,12.085,0,0,0,.6,1.226c.093.166.193.327.3.485.016.024.03.048.046.072s.046.075.071.11c.066.094.142.18.211.27.038.048.07.1.109.147.015.018.031.033.046.051.041.05.076.1.118.151a1.943,1.943,0,0,0,.146.143c.075.081.149.161.228.238a.43.43,0,0,1,.063.108.336.336,0,0,1,.011.115,34.268,34.268,0,0,0,.085,3.673,81.013,81.013,0,0,0,2.5,14.09c1.891,7,4.614,13.765,6.137,20.858.136.75.251,1.506.371,2.26a16.489,16.489,0,0,1,.389,2.446,22.828,22.828,0,0,0,.484,3.236,23.272,23.272,0,0,0,2.011,7.393c.668,1.265,1.793,2.255,2.405,3.5a16.034,16.034,0,0,1,.186,2.573q-.108,1.212-.142,2.413c-.1,3.394.1,6.845.246,10.239a24.7,24.7,0,0,0,1.922,9.454,55.423,55.423,0,0,1,3.454,10.233c.45,1.816.853,3.643,1.255,5.469a104.01,104.01,0,0,1,2.537,18.484,6.948,6.948,0,0,0,.093,1.787,5.1,5.1,0,0,1,.155,1.7,6.547,6.547,0,0,0-.2,3.4c.058,1.745.861,2.78,2.7,2.832l-.006-.019.006.019,2.026.392a4.171,4.171,0,0,0,.8.24c2.231.437,3.507-1.448,5.063-2.65,1.607-1.441,3.984-1.972,4.944-4.178a2.874,2.874,0,0,0,.323-.357c1.634-2.118-1.726-4.706-3.849-5.868a5.243,5.243,0,0,0-1.454-.618,39.823,39.823,0,0,1-1.4-7.793c-.495-5.858.051-11.756.3-17.668.237-5.54,1.183-11.026.536-16.672-.376-3.281-1.333-6.471-1.908-9.722a52.947,52.947,0,0,0-2.253-9.43,31.308,31.308,0,0,1-1.726-7.373,48.891,48.891,0,0,1-.32-5.324c0-.046,0-.091,0-.137-.014-2.084.076-4.18.213-6.257.573-8.685,2.06-17.339,1.278-26.08-1.023-11.443-3.771-22.6-6.274-33.758-2.288-10.2-3.2-20.256-1.025-30.366.02-.092.035-.184.055-.276a36.352,36.352,0,0,0,1.626-6.961.488.488,0,0,0,.019.172h0a2.948,2.948,0,0,0,.353.721l.017.027c.05.081.1.161.152.239.145.221.281.419.347.539.077.137.148.274.216.41.194.39.361.781.544,1.189.513,1.147,1.2,2.212,1.646,3.388a17.314,17.314,0,0,1,1.105,4.6c.786,8.686,4.208,16.347,8.527,23.629a67.689,67.689,0,0,1,3.958,8.176c.6,1.409,1.184,2.822,1.8,4.222.251.572.5,1.131.7,1.7A5.525,5.525,0,0,1,535.5,177q-.048.425-.094.85c-.25.595-.584,1.177-.878,1.74a17.234,17.234,0,0,0-1.535,3.707,5.037,5.037,0,0,0-1.083,2.349,13.909,13.909,0,0,0,.173,4.292l0,.028a7.653,7.653,0,0,0,.39,2.22,1.255,1.255,0,0,0,1.657.65,1.531,1.531,0,0,0,.732-1.427c.006-.17.01-.339.016-.507a10.407,10.407,0,0,1,.1-1.275,9.81,9.81,0,0,1,1.107-3.215l.695.766.769.848a18.236,18.236,0,0,1-1.484,4.866.742.742,0,0,0-.059.438c-.055.114-.105.23-.163.343-.032.063-.069.127-.105.189l-.811.284a2.189,2.189,0,0,0-2.46.674.762.762,0,0,0,.443,1.228,21.647,21.647,0,0,0,3.334.222,6.455,6.455,0,0,0,.819-.026.8.8,0,0,0,.476-.25.73.73,0,0,0,.073.006c3.676-.089,5.939-3.623,7.533-6.493a5.679,5.679,0,0,0,.794-2.531A11.642,11.642,0,0,0,545.546,184.174Z" transform="translate(-434.532 -35.565)" fill="#e6bc9b"/>
        <path id="影" d="M601.179,180.48a1.783,1.783,0,0,1,.743-1.383,5.314,5.314,0,0,1,.763-.371c.4-.176,1.063-.628,1.458-.233.367.367-.362,1.362-.517,1.711-1.506,3.4-1.364,7.213-1.482,10.844,0,2.041-.008,5.361-.087,7.4h0c-.069-.137-.14-.275-.218-.413-.067-.12-.2-.32-.349-.542a4.067,4.067,0,0,1-.525-.993h0a51.706,51.706,0,0,1,.157-7.108c.047-1.954.23-3.9.179-5.855A29.493,29.493,0,0,1,601.179,180.48Z" transform="translate(-519.72 -106.321)" fill="#aa9082" opacity="0.5"/>
        <path id="影-2" data-name="影" d="M492.72,180.48a1.783,1.783,0,0,0-.743-1.383,5.321,5.321,0,0,0-.763-.371c-.4-.176-1.063-.628-1.457-.233-.367.367.362,1.362.517,1.711,1.506,3.4,1.364,7.213,1.483,10.844,0,2.041.008,5.361.088,7.4h0c.068-.137.14-.275.217-.413.067-.12.2-.32.349-.542a4.068,4.068,0,0,0,.525-.993h0a51.716,51.716,0,0,0-.156-7.108c-.048-1.954-.231-3.9-.179-5.855A29.207,29.207,0,0,0,492.72,180.48Z" transform="translate(-462.762 -106.321)" fill="#aa9082" opacity="0.5"/>
        <path id="パス_3436" data-name="パス 3436" d="M510.017,345.923a22.125,22.125,0,0,0,5.084.192,46.8,46.8,0,0,0,5.1-.4,14.92,14.92,0,0,0,4.764-1.47,7.558,7.558,0,0,0,3.208-3.6.352.352,0,0,1,.643.285,9.486,9.486,0,0,1-1.341,2.325,7.385,7.385,0,0,1-2.084,1.751,14.639,14.639,0,0,1-5.07,1.542,39.871,39.871,0,0,1-5.207.286,20.373,20.373,0,0,1-5.208-.436.244.244,0,0,1,.107-.475Z" transform="translate(-473.083 -189.314)" fill="#bb8f70"/>
        <path id="パス_3437" data-name="パス 3437" d="M482.033,581.567a.263.263,0,0,1-.044,0,.244.244,0,0,1-.2-.283,18.429,18.429,0,0,0-.307-7.937.243.243,0,1,1,.471-.124,18.914,18.914,0,0,1,.315,8.148A.244.244,0,0,1,482.033,581.567Z" transform="translate(-458.572 -308.499)" fill="#bb8f70"/>
        <path id="パス_3438" data-name="パス 3438" d="M492.063,581.717a.243.243,0,0,1-.244-.24c-.005-.353-.014-.709-.022-1.068a21.539,21.539,0,0,1,.578-6.908.244.244,0,0,1,.466.146,21.155,21.155,0,0,0-.556,6.75c.008.361.017.718.022,1.071a.244.244,0,0,1-.24.247Z" transform="translate(-463.841 -308.649)" fill="#bb8f70"/>
        <path id="パス_3439" data-name="パス 3439" d="M490.873,450.311a.254.254,0,0,1-.078-.013.243.243,0,0,1-.153-.308,27.051,27.051,0,0,0,1.374-7.132.239.239,0,0,1,.256-.229.243.243,0,0,1,.23.256,27.481,27.481,0,0,1-1.4,7.26A.243.243,0,0,1,490.873,450.311Z" transform="translate(-463.26 -241.652)" fill="#bb8f70"/>
        <path id="パス_3440" data-name="パス 3440" d="M510.2,452.839a.244.244,0,0,1-.244-.233,16.529,16.529,0,0,1,1.293-7.121.244.244,0,0,1,.449.191,16.023,16.023,0,0,0-1.255,6.909.244.244,0,0,1-.233.254Z" transform="translate(-473.15 -243.038)" fill="#bb8f70"/>
        <path id="パス_3441" data-name="パス 3441" d="M524.83,197.051a7.97,7.97,0,0,0,3.193-2.812,11.119,11.119,0,0,0,1.639-3.937,19.429,19.429,0,0,0,.34-4.286c-.031-1.443-.146-2.89-.25-4.348a.343.343,0,0,1,.684-.059,41.553,41.553,0,0,1,.274,4.4,17.967,17.967,0,0,1-.5,4.419,11.6,11.6,0,0,1-1.868,4.038,7.931,7.931,0,0,1-3.449,2.739.085.085,0,0,1-.067-.156Z" transform="translate(-480.759 -107.832)" fill="#bb8f70"/>
        <path id="パス_3442" data-name="パス 3442" d="M531.348,168.042a14.045,14.045,0,0,0-.35-1.866,13.441,13.441,0,0,0-.6-1.806,11.743,11.743,0,0,0-.843-1.7,9.42,9.42,0,0,0-1.13-1.534.113.113,0,0,1,.154-.164,7.447,7.447,0,0,1,1.333,1.465,10.739,10.739,0,0,1,.975,1.729,10.954,10.954,0,0,1,.942,3.842.244.244,0,0,1-.486.038Z" transform="translate(-482.605 -97.39)" fill="#bb8f70"/>
        <path id="パス_3443" data-name="パス 3443" d="M446.6,326.59a7.784,7.784,0,0,1-.955,3.31,7.046,7.046,0,0,1-2.294,2.563.209.209,0,0,1-.289-.061.211.211,0,0,1,.021-.255,13.782,13.782,0,0,0,1.906-2.605,11.373,11.373,0,0,0,1.128-3.016.245.245,0,0,1,.483.064Z" transform="translate(-438.855 -182.089)" fill="#bb8f70"/>
        <g id="グループ_3027" data-name="グループ 3027" transform="translate(55.111 62.178)">
          <path id="パス_3444" data-name="パス 3444" d="M567.565,345.923a22.127,22.127,0,0,1-5.084.192,46.809,46.809,0,0,1-5.1-.4,14.918,14.918,0,0,1-4.764-1.47,7.554,7.554,0,0,1-3.208-3.6.352.352,0,0,0-.643.285,9.466,9.466,0,0,0,1.34,2.325,7.394,7.394,0,0,0,2.084,1.751,14.636,14.636,0,0,0,5.07,1.542,39.86,39.86,0,0,0,5.206.286,20.373,20.373,0,0,0,5.208-.436.244.244,0,0,0-.107-.475Z" transform="translate(-548.474 -252.298)" fill="#bb8f70"/>
          <path id="パス_3445" data-name="パス 3445" d="M614.6,573.045a.241.241,0,0,0-.3.174,18.916,18.916,0,0,0-.316,8.148.244.244,0,0,0,.239.2.26.26,0,0,0,.044,0,.244.244,0,0,0,.2-.283,18.422,18.422,0,0,1,.307-7.937A.243.243,0,0,0,614.6,573.045Z" transform="translate(-581.532 -370.677)" fill="#bb8f70"/>
          <path id="パス_3446" data-name="パス 3446" d="M603.594,573.343a.244.244,0,0,0-.16.305,21.157,21.157,0,0,1,.556,6.75c-.008.361-.017.718-.022,1.071a.244.244,0,0,0,.24.247h0a.244.244,0,0,0,.244-.24c0-.353.013-.709.022-1.068a21.552,21.552,0,0,0-.578-6.908A.243.243,0,0,0,603.594,573.343Z" transform="translate(-576.307 -370.827)" fill="#bb8f70"/>
          <path id="パス_3447" data-name="パス 3447" d="M603.439,442.859a.24.24,0,0,0-.257-.229.243.243,0,0,0-.23.256,27.526,27.526,0,0,0,1.4,7.26.244.244,0,0,0,.231.166.254.254,0,0,0,.078-.013.243.243,0,0,0,.153-.308A27.024,27.024,0,0,1,603.439,442.859Z" transform="translate(-576.068 -304.305)" fill="#bb8f70"/>
          <path id="パス_3448" data-name="パス 3448" d="M583.986,445.356a.244.244,0,0,0-.129.32,16.023,16.023,0,0,1,1.255,6.909.244.244,0,0,0,.233.254h.011a.244.244,0,0,0,.244-.233,16.531,16.531,0,0,0-1.293-7.121A.244.244,0,0,0,583.986,445.356Z" transform="translate(-566.339 -305.684)" fill="#bb8f70"/>
          <path id="パス_3449" data-name="パス 3449" d="M562.908,194.468a7.926,7.926,0,0,0,3.449,2.739.085.085,0,0,0,.066-.156,7.971,7.971,0,0,1-3.193-2.812,11.121,11.121,0,0,1-1.639-3.937,19.432,19.432,0,0,1-.34-4.286c.032-1.443.146-2.89.25-4.348a.343.343,0,0,0-.684-.059,41.553,41.553,0,0,0-.274,4.4,17.962,17.962,0,0,0,.5,4.419A11.606,11.606,0,0,0,562.908,194.468Z" transform="translate(-554.483 -171.303)" fill="#bb8f70"/>
          <path id="パス_3450" data-name="パス 3450" d="M562.238,168.258a.245.245,0,0,0,.253-.217,13.956,13.956,0,0,1,.349-1.866,13.449,13.449,0,0,1,.6-1.806,11.825,11.825,0,0,1,.843-1.7,9.449,9.449,0,0,1,1.13-1.534.113.113,0,0,0-.154-.164,7.449,7.449,0,0,0-1.333,1.465,10.785,10.785,0,0,0-.975,1.729A10.966,10.966,0,0,0,562,168,.245.245,0,0,0,562.238,168.258Z" transform="translate(-555.227 -160.942)" fill="#bb8f70"/>
          <path id="パス_3451" data-name="パス 3451" d="M650.349,332.463a.208.208,0,0,0,.288-.061.21.21,0,0,0-.021-.255,13.822,13.822,0,0,1-1.906-2.605,11.372,11.372,0,0,1-1.128-3.016.244.244,0,0,0-.483.064,7.79,7.79,0,0,0,.955,3.31A7.044,7.044,0,0,0,650.349,332.463Z" transform="translate(-598.536 -245.118)" fill="#bb8f70"/>
          <path id="パス_3452" data-name="パス 3452" d="M548.691,211.782V180.149a.244.244,0,0,0-.244-.244h0a.243.243,0,0,0-.244.244v31.634a.243.243,0,0,0,.244.244h0A.244.244,0,0,0,548.691,211.782Z" transform="translate(-548.203 -170.593)" fill="#bb8f70"/>
          <path id="パス_3453" data-name="パス 3453" d="M648.617,346.717a.165.165,0,0,0-.215.011c-.583.567-1.04,1.231-1.538,1.819a5.8,5.8,0,0,1-1.718,1.46,6.758,6.758,0,0,1-1.017.5,4.91,4.91,0,0,0-1.137.517,1,1,0,0,0-.453.628.919.919,0,0,0,.217.739,1.622,1.622,0,0,0,.538.416,1.4,1.4,0,0,0,.659.165.171.171,0,0,0,.022-.34l-.018,0a1.32,1.32,0,0,1-.831-.519.448.448,0,0,1-.1-.367c.015-.09.119-.19.259-.278a5.766,5.766,0,0,1,1.035-.425,7.235,7.235,0,0,0,1.119-.526,5.994,5.994,0,0,0,1.835-1.641c.489-.646.891-1.32,1.369-1.931A.164.164,0,0,0,648.617,346.717Z" transform="translate(-596.209 -255.474)" fill="#bb8f70"/>
        </g>
        <path id="パス_3454" data-name="パス 3454" d="M442.62,346.728c.583.567,1.04,1.231,1.539,1.819a5.791,5.791,0,0,0,1.718,1.46,6.727,6.727,0,0,0,1.016.5,4.912,4.912,0,0,1,1.138.517,1,1,0,0,1,.453.628.919.919,0,0,1-.217.739,1.621,1.621,0,0,1-.537.416,1.4,1.4,0,0,1-.659.165.171.171,0,0,1-.022-.34l.018,0a1.319,1.319,0,0,0,.831-.519.448.448,0,0,0,.1-.367c-.015-.09-.119-.19-.26-.278a5.762,5.762,0,0,0-1.034-.425,7.216,7.216,0,0,1-1.119-.526,5.987,5.987,0,0,1-1.835-1.641c-.489-.646-.891-1.32-1.368-1.931a.163.163,0,0,1,.241-.218Z" transform="translate(-438.507 -192.51)" fill="#bb8f70"/>
        <g id="グループ_3028" data-name="グループ 3028" transform="translate(39.902)">
          <path id="パス_3455" data-name="パス 3455" d="M548.135,54.429a11.7,11.7,0,0,0-1.542-4.8,23.048,23.048,0,0,0-2.521-3.87,15.351,15.351,0,0,0-3.385-3.115,14.64,14.64,0,0,0-4.371-1.974,15.287,15.287,0,0,0-6.865,0,14.628,14.628,0,0,0-4.371,1.974,15.339,15.339,0,0,0-3.386,3.115,23.048,23.048,0,0,0-2.521,3.87,11.708,11.708,0,0,0-1.542,4.8q-.015.317,0,.633c.015.339.307-.71.45-.33.219.41.515.76.7,1.189.78,1.821,1.236,3.756,1.844,5.636l.521,1.613c.034.105,11.612-4.817,11.74-4.816s11.706,4.921,11.74,4.816l.522-1.613c.608-1.88,1.064-3.815,1.844-5.636.184-.429.48-.779.7-1.189.142-.38.435.669.449.33C548.145,54.851,548.146,54.64,548.135,54.429Z" transform="translate(-517.077 -35.565)" fill="#604c3f"/>
          <path id="パス_3456" data-name="パス 3456" d="M535.5,73.26l-12.731,3.548s.155.908.661,2.677a55.329,55.329,0,0,0,1.8,5.27,54.348,54.348,0,0,0,2.3,5.015q.315.6.645,1.2c.279.5.91-.177,1.125-.411a8.556,8.556,0,0,1,3.977-2.4q.284-.08.571-.142c.208-.044.417-.076.627-.113a20.722,20.722,0,0,1,2.057,0c.209.037.419.069.627.113q.287.062.571.142a8.56,8.56,0,0,1,3.978,2.4c.215.234.846.915,1.125.411q.329-.6.644-1.2a54.369,54.369,0,0,0,2.3-5.015,55.514,55.514,0,0,0,1.8-5.27c.506-1.769.661-2.677.661-2.677Z" transform="translate(-519.698 -52.35)" fill="url(#linear-gradient)"/>
          <path id="パス_3457" data-name="パス 3457" d="M516.719,43.583a13.363,13.363,0,0,1,1.3-1.538,5.914,5.914,0,0,1,1.446-1.254,4.263,4.263,0,0,1-.73,1.167,8.608,8.608,0,0,0-.638,1.146,10.13,10.13,0,0,0-.771,2.509,13.517,13.517,0,0,0,.144,5.14,2.192,2.192,0,0,0,.22.727c.1.276.263.01.239-.168a4.4,4.4,0,0,1,.158-1.882l.654,1.522a7.685,7.685,0,0,0,.327.762c.028.049.253.411.272.1a12.4,12.4,0,0,1,.32-2.153,13.855,13.855,0,0,1,1.193-3.337c.648-1.205,1.373-2.44,2.917-2.291a3.093,3.093,0,0,0,1.385-.308c.369-.137.753-.195,1.131-.3a23.064,23.064,0,0,1,2.4-.642,29.455,29.455,0,0,1,4.732-.376,24.906,24.906,0,0,1,12.135,3.27.109.109,0,0,0,.162-.086,5.27,5.27,0,0,1,2.211,2.318.11.11,0,0,0,.2-.055,8.544,8.544,0,0,0-.407-1.825,8.914,8.914,0,0,0-3.765-4.7,11.588,11.588,0,0,1,3.849.928.11.11,0,0,0,.132-.172,11.261,11.261,0,0,0-1.2-1.318A11.61,11.61,0,0,0,541.7,38a7.094,7.094,0,0,1,4.325.467.11.11,0,0,0,.133-.172,6.821,6.821,0,0,0-1.256-1.15,7.257,7.257,0,0,0-5.244-1.255,6.263,6.263,0,0,1,2.768-.793.11.11,0,0,0,.029-.216,7.55,7.55,0,0,0-2.549-.344,9.529,9.529,0,0,1-1.057.069,2.819,2.819,0,0,1,1.892-.542,4.054,4.054,0,0,1,1.976.439.11.11,0,0,0,.111-.189,7.8,7.8,0,0,0-2.117-1.158c-2.311-.826-4.731-.225-7.053.221-.3.058-1.01.188-1.01.188a1.459,1.459,0,0,1,.481-.924,4.851,4.851,0,0,1,1.128-.811,5.669,5.669,0,0,1,2.561-.684c.12,0,.154-.2.029-.216l-.029,0a21.9,21.9,0,0,0-3.26-.249,10.713,10.713,0,0,0-5.165,1.226,7.108,7.108,0,0,0-2.946,3,4.979,4.979,0,0,1,.924-3.543c.07-.1-.062-.194-.15-.15a5.649,5.649,0,0,0-3.038,5.937s0,.009,0,.014a.5.5,0,0,1-.213.358c-.007,0-.014.006-.021.01a2.8,2.8,0,0,0-1.176-.241,2.983,2.983,0,0,0-2.058.884.112.112,0,0,0,.078.188l1.725.168a8.5,8.5,0,0,0-1.332.638,8.711,8.711,0,0,0-3.659,4.33C516.471,43.624,516.652,43.675,516.719,43.583Z" transform="translate(-516.511 -30.678)" fill="#604c3f"/>
        </g>
      </g>
      <path id="パス_3458" data-name="パス 3458" d="M490.731,171.233a36.818,36.818,0,0,0,1.536,6.484c.02.092.035.185.055.277,1.959,9.229,1.393,18.415-.426,27.7h48.311c-1.819-9.287-2.385-18.473-.426-27.7.019-.093.035-.185.055-.277a36.826,36.826,0,0,0,1.536-6.484c-2.243-7.661-2.189-11.008-1.28-17.058.752-5.012,5.238-15.979,6.763-19.613a13.883,13.883,0,0,0-4.612-2.041c-4.646-1.179-9.437-2.043-13.569-4.518a67.2,67.2,0,0,1-11.007.759h-3.233A67.2,67.2,0,0,1,503.429,128c-4.132,2.474-8.923,3.339-13.569,4.518a13.876,13.876,0,0,0-4.611,2.041c1.524,3.633,6.011,14.6,6.763,19.613C492.92,160.225,492.975,163.572,490.731,171.233Z" transform="translate(-12063.431 -668.15)" fill="#639cbc" opacity="0.6"/>
      <path id="パス_3459" data-name="パス 3459" d="M541.158,289.549H492.194c-.086.409-.171.817-.262,1.226-2,9.029-4.159,18.056-5.458,27.233a47.858,47.858,0,0,0,22.308,2.557c4.052-.674,6.108-2.625,7.09-4.02a7.545,7.545,0,0,0,.4-.744,3.18,3.18,0,0,0,.4-1.121,3.179,3.179,0,0,0,.4,1.121,7.536,7.536,0,0,0,.405.744c.981,1.4,3.037,3.346,7.089,4.02a47.858,47.858,0,0,0,22.308-2.557c-1.3-9.177-3.456-18.2-5.457-27.233C541.329,290.366,541.244,289.958,541.158,289.549Z" transform="translate(-12064.054 -750.855)" fill="#639cbc" opacity="0.6"/>
      <g id="グループ_3030" data-name="グループ 3030" transform="translate(-11600.063 -532.303)">
        <path id="パス_3460" data-name="パス 3460" d="M475.671,187.351c.161-.573.341-1.14.553-1.7.452-1.184,1.14-2.256,1.656-3.41.248-.555.467-1.077.765-1.609.067-.12.2-.32.349-.542l.116-.18-.518-16.856c-.4-5.815-3.114-11.7-6.514-18.909a12.852,12.852,0,0,0-3.928,5.7,20.227,20.227,0,0,0-1.074,5.566c-.529,8.506-1.5,16.931-2.728,25.356a16.2,16.2,0,0,1-1.053,3.5C470.661,183.325,474.185,185.738,475.671,187.351Z" transform="translate(-452.195 -144.149)" fill="#639cbc" opacity="0.6"/>
        <path id="パス_3461" data-name="パス 3461" d="M463.718,232.34c-4.176-4.594-9.8-4.1-12.537-3.493-.011.033-.024.067-.034.1q-.491,1.161-1.069,2.3c-.427.846-.888,1.684-1.392,2.513a9.492,9.492,0,0,0-.543,1.058,13.955,13.955,0,0,0-.748,2.139c-.771,1.879-.861,3.978-1.259,5.963-.116.577-1.973,10.52-2.514,13.418-.634,3.4-1.3,6.787-2.065,10.149a23.211,23.211,0,0,1-.867,2.563l7.754,2.374c.028-.088.051-.177.081-.264.2-.574.453-1.137.706-1.712.62-1.409,1.21-2.831,1.811-4.249a68.18,68.18,0,0,1,3.983-8.23c4.346-7.329,7.79-15.039,8.582-23.782C463.632,232.907,463.676,232.623,463.718,232.34Z" transform="translate(-440.69 -187.061)" fill="#639cbc" opacity="0.6"/>
      </g>
      <g id="グループ_3031" data-name="グループ 3031" transform="translate(-11521.621 -532.303)">
        <path id="パス_3462" data-name="パス 3462" d="M605.313,187.351c-.161-.573-.341-1.14-.553-1.7-.452-1.184-1.14-2.256-1.656-3.41-.248-.555-.467-1.077-.765-1.609-.067-.12-.2-.32-.349-.542l-.116-.18.518-16.856c.4-5.815,3.114-11.7,6.514-18.909a12.847,12.847,0,0,1,3.928,5.7,20.21,20.21,0,0,1,1.074,5.566c.529,8.506,1.5,16.931,2.728,25.356a16.231,16.231,0,0,0,1.053,3.5C610.323,183.325,606.8,185.738,605.313,187.351Z" transform="translate(-601.874 -144.149)" fill="#639cbc" opacity="0.6"/>
        <path id="パス_3463" data-name="パス 3463" d="M609.79,232.34c4.176-4.594,9.8-4.1,12.536-3.493.011.033.024.067.034.1q.491,1.161,1.07,2.3c.427.846.888,1.684,1.392,2.513a9.583,9.583,0,0,1,.543,1.058,13.9,13.9,0,0,1,.748,2.139c.771,1.879.861,3.978,1.259,5.963.116.577,1.973,10.52,2.514,13.418.635,3.4,1.3,6.787,2.065,10.149a23.3,23.3,0,0,0,.867,2.563l-7.754,2.374c-.028-.088-.051-.177-.082-.264-.2-.574-.453-1.137-.706-1.712-.62-1.409-1.21-2.831-1.811-4.249a68.189,68.189,0,0,0-3.983-8.23c-4.346-7.329-7.79-15.039-8.582-23.782C609.875,232.907,609.832,232.623,609.79,232.34Z" transform="translate(-605.903 -187.061)" fill="#639cbc" opacity="0.6"/>
      </g>
      <g id="グループ_3032" data-name="グループ 3032" transform="translate(-11584.271 -431.591)">
        <path id="パス_3464" data-name="パス 3464" d="M485.131,351.865q-.292,2.294-.5,4.6c-.787,8.8.709,17.507,1.286,26.248.138,2.091.228,4.2.215,6.3,0,.046,0,.091,0,.138a49.236,49.236,0,0,1-.322,5.358q-.126,1.07-.315,2.132l17.776,3.823c.3-1.232.5-2.491.685-3.72a22.911,22.911,0,0,0,.487-3.257,16.6,16.6,0,0,1,.392-2.462c.121-.759.236-1.519.373-2.275,1.533-7.138,4.273-13.952,6.176-20.992a81.588,81.588,0,0,0,2.512-14.181c.038-.433.059-.866.074-1.3C501.49,357.107,489.279,353.421,485.131,351.865Z" transform="translate(-478.904 -351.865)" fill="#639cbc" opacity="0.6"/>
        <path id="パス_3465" data-name="パス 3465" d="M478.367,451.073a53.329,53.329,0,0,0-2.267,9.491c-.579,3.272-1.542,6.482-1.92,9.785-.651,5.682.3,11.2.539,16.78.254,5.95.8,11.886.306,17.782a40.086,40.086,0,0,1-1.4,7.843c-.018,0-.041.006-.063.01a10.793,10.793,0,0,0-.244,4.587c.049.9,7.42,1.222,10.82.812.022-.112.042-.208.058-.264a6.991,6.991,0,0,0,.094-1.8,104.756,104.756,0,0,1,2.553-18.6c.406-1.838.81-3.677,1.263-5.5a55.787,55.787,0,0,1,3.476-10.3,24.867,24.867,0,0,0,1.935-9.516c.146-3.416.346-6.889.247-10.305q-.035-1.209-.142-2.429a16.025,16.025,0,0,1,.188-2.59c.615-1.258,1.748-2.254,2.42-3.527a12.931,12.931,0,0,0,.569-1.261l-17.586-3.643A27.431,27.431,0,0,1,478.367,451.073Z" transform="translate(-473.203 -401.009)" fill="#639cbc" opacity="0.6"/>
      </g>
      <g id="グループ_3033" data-name="グループ 3033" transform="translate(-11545.533 -431.591)">
        <path id="パス_3466" data-name="パス 3466" d="M581.657,351.865q.292,2.294.5,4.6c.787,8.8-.709,17.507-1.286,26.248-.138,2.091-.228,4.2-.215,6.3,0,.046,0,.091,0,.138a49.259,49.259,0,0,0,.322,5.358q.126,1.07.315,2.132l-17.777,3.823c-.3-1.232-.5-2.491-.685-3.72a22.986,22.986,0,0,1-.487-3.257,16.592,16.592,0,0,0-.392-2.462c-.121-.759-.236-1.519-.373-2.275-1.532-7.138-4.273-13.952-6.176-20.992a81.549,81.549,0,0,1-2.511-14.181c-.038-.433-.059-.866-.075-1.3C565.3,357.107,577.51,353.421,581.657,351.865Z" transform="translate(-552.824 -351.865)" fill="#639cbc" opacity="0.6"/>
        <path id="パス_3467" data-name="パス 3467" d="M594.606,451.073a53.292,53.292,0,0,1,2.267,9.491c.579,3.272,1.542,6.482,1.92,9.785.651,5.682-.3,11.2-.539,16.78-.254,5.95-.8,11.886-.306,17.782a40.094,40.094,0,0,0,1.4,7.843c.018,0,.041.006.063.01a10.808,10.808,0,0,1,.244,4.587c-.049.9-7.42,1.222-10.82.812-.021-.112-.042-.208-.058-.264a6.991,6.991,0,0,1-.094-1.8,104.75,104.75,0,0,0-2.553-18.6c-.406-1.838-.81-3.677-1.263-5.5a55.783,55.783,0,0,0-3.476-10.3,24.869,24.869,0,0,1-1.935-9.516c-.147-3.416-.347-6.889-.248-10.305q.035-1.209.142-2.429a16.074,16.074,0,0,0-.187-2.59c-.616-1.258-1.749-2.254-2.421-3.527a12.932,12.932,0,0,1-.569-1.261l17.586-3.643A27.432,27.432,0,0,0,594.606,451.073Z" transform="translate(-564.709 -401.009)" fill="#639cbc" opacity="0.6"/>
      </g>
      <path id="パス_3468" data-name="パス 3468" d="M536.811,115.29h2.113a66.3,66.3,0,0,0,9.357-.55v-.008c-.205-.144-.41-.287-.611-.441a2.955,2.955,0,0,1-.729-.895,8.534,8.534,0,0,1-.682-1.6,7.379,7.379,0,0,1-.3-1.046c0-.02-.008-.039-.011-.058a14.017,14.017,0,0,1,.23-5.451l-2.359,1.717c-1.277,0-3.093-3.376-7.012-3.376s-5.735,3.376-7.012,3.376l-2.358-1.717a14.027,14.027,0,0,1,.23,5.451c0,.019-.008.038-.012.058a7.306,7.306,0,0,1-.3,1.046,8.56,8.56,0,0,1-.682,1.6,2.965,2.965,0,0,1-.729.895c-.2.154-.406.3-.611.441v.008a66.288,66.288,0,0,0,9.357.55Z" transform="translate(-12084.188 -655.304)" fill="#639cbc" opacity="0.6"/>
    </g>
  </g>
</svg>
